<?xml version="1.0" encoding="UTF-8" standalone="no"?>
<svg
   xmlns:dc="http://purl.org/dc/elements/1.1/"
   xmlns:cc="http://creativecommons.org/ns#"
   xmlns:rdf="http://www.w3.org/1999/02/22-rdf-syntax-ns#"
   xmlns:svg="http://www.w3.org/2000/svg"
   xmlns="http://www.w3.org/2000/svg"
   width="128"
   height="128"
   id="svg2"
   version="1.1">
  <defs
     id="defs4" />
  <metadata
     id="metadata7">
    <rdf:RDF>
      <cc:Work
         rdf:about="">
        <dc:format>image/svg+xml</dc:format>
        <dc:type
           rdf:resource="http://purl.org/dc/dcmitype/StillImage" />
        <dc:title></dc:title>
      </cc:Work>
    </rdf:RDF>
  </metadata>
  <g
     id="layer1"
     transform="translate(0,-924.36218)">
    <rect
       style="fill:#ff0000;fill-opacity:1;stroke:none;stroke-width:12;stroke-linecap:butt;stroke-linejoin:miter;stroke-miterlimit:4;stroke-dasharray:none;stroke-opacity:1"
       id="rect4135"
       width="128"
       height="128"
       x="0"
       y="924.36218"
       rx="4"
       ry="4" />
    <path
       style="fill:#ffffff;fill-opacity:1;stroke:none;stroke-width:12;stroke-linecap:butt;stroke-linejoin:miter;stroke-miterlimit:4;stroke-dasharray:none;stroke-opacity:1"
       d="M 64.671875 16.003906 A 48 48 0 0 0 37.455078 24.007812 A 48 48 0 0 0 23.365234 89.550781 A 48 48 0 0 0 88.541016 105.25195 A 48 48 0 0 0 105.8457 40.484375 L 103.32422 36.476562 A 48 48 0 0 0 64.671875 16.003906 z M 64.447266 32.003906 A 32 32 0 0 1 90.216797 45.650391 L 91.896484 48.322266 A 32 32 0 0 1 80.359375 91.501953 A 32 32 0 0 1 36.910156 81.033203 A 32 32 0 0 1 46.302734 37.339844 A 32 32 0 0 1 64.447266 32.003906 z "
       transform="translate(0,924.36218)"
       id="path3335" />
    <rect
       style="fill:#ffffff;fill-opacity:1;stroke:none;stroke-width:12;stroke-linecap:butt;stroke-linejoin:miter;stroke-miterlimit:4;stroke-dasharray:none;stroke-opacity:1"
       id="rect4140"
       width="80"
       height="16"
       x="-784.13245"
       y="-661.62274"
       transform="matrix(-0.70710678,-0.70710678,0.70710678,-0.70710678,0,0)" />
  </g>
</svg>
