<?xml version="1.0" encoding="UTF-8" standalone="no"?>
<svg
   xmlns:dc="http://purl.org/dc/elements/1.1/"
   xmlns:cc="http://creativecommons.org/ns#"
   xmlns:rdf="http://www.w3.org/1999/02/22-rdf-syntax-ns#"
   xmlns:svg="http://www.w3.org/2000/svg"
   xmlns="http://www.w3.org/2000/svg"
   version="1.1"
   id="svg2"
   height="128"
   width="128">
  <defs
     id="defs4" />
  <metadata
     id="metadata7">
    <rdf:RDF>
      <cc:Work
         rdf:about="">
        <dc:format>image/svg+xml</dc:format>
        <dc:type
           rdf:resource="http://purl.org/dc/dcmitype/StillImage" />
        <dc:title></dc:title>
      </cc:Work>
    </rdf:RDF>
  </metadata>
  <g
     transform="translate(0,-924.36218)"
     id="layer1">
    <rect
       ry="4"
       rx="4"
       y="924.36218"
       x="0"
       height="128"
       width="128"
       id="rect4135"
       style="fill:#ff007f;fill-opacity:1;stroke:none;stroke-width:12;stroke-linecap:butt;stroke-linejoin:miter;stroke-miterlimit:4;stroke-dasharray:none;stroke-opacity:1" />
    <g
       transform="matrix(0.85308584,-0.85309001,0.85308584,0.85309001,-829.50001,204.05309)"
       id="g4140">
      <path
         style="fill:#ffffff;fill-opacity:1;stroke:none;stroke-width:12;stroke-linecap:butt;stroke-linejoin:miter;stroke-miterlimit:4;stroke-dasharray:none;stroke-opacity:1"
         d="m 64.447905,940.36529 a 31.999793,31.999741 0 0 0 -18.144414,5.33589 31.999793,31.999741 0 0 0 -9.393169,43.69501 31.999793,31.999741 0 0 0 43.450241,10.4673 31.999793,31.999741 0 0 0 11.536381,-43.17802 l -1.680976,-2.67185 A 31.999793,31.999741 0 0 0 64.447905,940.36529 Z m -0.149738,10.66658 a 21.333195,21.333161 0 0 1 17.179576,9.09758 l 1.119784,1.78124 a 21.333195,21.333161 0 0 1 -7.691356,28.7862 21.333195,21.333161 0 0 1 -28.965959,-6.9791 21.333195,21.333161 0 0 1 6.261678,-29.12866 21.333195,21.333161 0 0 1 12.096277,-3.55726 z"
         id="path3335" />
      <rect
         style="fill:#ffffff;fill-opacity:1;stroke:none;stroke-width:12;stroke-linecap:butt;stroke-linejoin:miter;stroke-miterlimit:4;stroke-dasharray:none;stroke-opacity:1"
         id="rect4136"
         width="10.8"
         height="40"
         x="58.599998"
         y="996.36218"
         ry="3.3333335"
         rx="4" />
    </g>
  </g>
</svg>
