<?xml version="1.0" encoding="UTF-8" standalone="no"?>
<!-- Created with Inkscape (http://www.inkscape.org/) -->

<svg
   xmlns:dc="http://purl.org/dc/elements/1.1/"
   xmlns:cc="http://creativecommons.org/ns#"
   xmlns:rdf="http://www.w3.org/1999/02/22-rdf-syntax-ns#"
   xmlns:svg="http://www.w3.org/2000/svg"
   xmlns="http://www.w3.org/2000/svg"
   xmlns:sodipodi="http://sodipodi.sourceforge.net/DTD/sodipodi-0.dtd"
   xmlns:inkscape="http://www.inkscape.org/namespaces/inkscape"
   width="128"
   height="128"
   id="svg2"
   version="1.1"
   inkscape:version="0.48.0 r9654"
   sodipodi:docname="picture.svg">
  <defs
     id="defs4" />
  <sodipodi:namedview
     id="base"
     pagecolor="#000000"
     bordercolor="#666666"
     borderopacity="1.0"
     inkscape:pageopacity="1"
     inkscape:pageshadow="2"
     inkscape:zoom="4.109375"
     inkscape:cx="64"
     inkscape:cy="64"
     inkscape:document-units="px"
     inkscape:current-layer="layer1"
     showgrid="false"
     inkscape:window-width="1366"
     inkscape:window-height="720"
     inkscape:window-x="-2"
     inkscape:window-y="-3"
     inkscape:window-maximized="1" />
  <metadata
     id="metadata7">
    <rdf:RDF>
      <cc:Work
         rdf:about="">
        <dc:format>image/svg+xml</dc:format>
        <dc:type
           rdf:resource="http://purl.org/dc/dcmitype/StillImage" />
        <dc:title></dc:title>
      </cc:Work>
    </rdf:RDF>
  </metadata>
  <g
     inkscape:label="Capa 1"
     inkscape:groupmode="layer"
     id="layer1"
     transform="translate(0,-924.36218)">
    <path
       style="fill:#ffffff;fill-opacity:1;stroke:none"
       d="M 16 37 L 16 91 L 112 91 L 112 37 L 16 37 z M 64 40 C 77.254834 40 88 50.745166 88 64 C 88 77.254834 77.254834 88 64 88 C 50.745166 88 40 77.254834 40 64 C 40 50.745166 50.745166 40 64 40 z M 87 40 L 108 40 L 108 52 L 87 52 L 87 40 z M 64 43 C 52.402021 43 43 52.40202 43 64 C 43 75.59798 52.402021 85 64 85 C 75.597979 85 85 75.59798 85 64 C 85 52.40202 75.597979 43 64 43 z M 92 43 L 92 49 L 103 49 L 103 43 L 92 43 z M 64 48 C 72.836556 48 80 55.163444 80 64 C 80 72.836556 72.836556 80 64 80 C 55.163444 80 48 72.836556 48 64 C 48 55.163444 55.163444 48 64 48 z "
       transform="translate(0,924.36218)"
       id="rect2985" />
  </g>
</svg>
