<?xml version="1.0" encoding="UTF-8" standalone="no"?>
<svg
   xmlns:dc="http://purl.org/dc/elements/1.1/"
   xmlns:cc="http://creativecommons.org/ns#"
   xmlns:rdf="http://www.w3.org/1999/02/22-rdf-syntax-ns#"
   xmlns:svg="http://www.w3.org/2000/svg"
   xmlns="http://www.w3.org/2000/svg"
   id="svg2"
   version="1.1"
   width="128"
   height="128"
   viewBox="0 0 128 128">
  <metadata
     id="metadata8">
    <rdf:RDF>
      <cc:Work
         rdf:about="">
        <dc:format>image/svg+xml</dc:format>
        <dc:type
           rdf:resource="http://purl.org/dc/dcmitype/StillImage" />
        <dc:title></dc:title>
      </cc:Work>
    </rdf:RDF>
  </metadata>
  <defs
     id="defs6" />
  <rect
     style="fill:#1f001f;fill-opacity:1;stroke:none;stroke-width:12;stroke-linecap:butt;stroke-linejoin:miter;stroke-miterlimit:4;stroke-dasharray:none;stroke-opacity:1"
     id="rect3356"
     width="128"
     height="128"
     x="0"
     y="0"
     rx="4"
     ry="4" />
  <g
     style="fill:#ffffff;fill-opacity:1"
     id="text4177">
    <path
       style="fill:#ffffff;fill-opacity:1"
       id="path3344"
       d="m 28.92394,79.585403 0,-2.463916 9.902155,-1.255203 0,-54.624567 -2.370938,0 q -11.761715,0 -16.085192,0.92978 l -1.255203,9.7162 -3.114762,0 0,-14.644033 54.857012,0 0,14.644033 -3.161252,0 -1.255203,-9.7162 q -1.39467,-0.325423 -6.090058,-0.557868 -4.695388,-0.278934 -10.274067,-0.278934 l -2.277961,0 0,54.531589 9.902156,1.255203 0,2.463916 -28.776687,0 z" />
  </g>
  <g
     style="fill:#ffffff;fill-opacity:1"
     id="text4177-2">
    <path
       style="fill:#ffffff;fill-opacity:1"
       id="path3347"
       d="m 70.06693,110.75634 0,-2.46392 9.902156,-1.2552 0,-54.624566 -2.370939,0 q -11.761715,0 -16.085192,0.92978 l -1.255202,9.716199 -3.114763,0 0,-14.644032 54.85701,0 0,14.644032 -3.16125,0 -1.2552,-9.716199 q -1.39467,-0.325423 -6.09006,-0.557868 -4.695389,-0.278934 -10.274068,-0.278934 l -2.277961,0 0,54.531588 9.902156,1.2552 0,2.46392 -28.776687,0 z" />
  </g>
</svg>
