<?xml version="1.0" encoding="UTF-8" standalone="no"?>
<svg
   xmlns:dc="http://purl.org/dc/elements/1.1/"
   xmlns:cc="http://creativecommons.org/ns#"
   xmlns:rdf="http://www.w3.org/1999/02/22-rdf-syntax-ns#"
   xmlns:svg="http://www.w3.org/2000/svg"
   xmlns="http://www.w3.org/2000/svg"
   version="1.1"
   id="svg2"
   height="128"
   width="128">
  <defs
     id="defs4" />
  <metadata
     id="metadata7">
    <rdf:RDF>
      <cc:Work
         rdf:about="">
        <dc:format>image/svg+xml</dc:format>
        <dc:type
           rdf:resource="http://purl.org/dc/dcmitype/StillImage" />
        <dc:title></dc:title>
      </cc:Work>
    </rdf:RDF>
  </metadata>
  <g
     transform="translate(0,-924.36218)"
     id="layer1">
    <path
       id="rect2985"
       transform="translate(0,924.36218)"
       d="m 16,37 0,54 96,0 0,-54 z m 3.556,2 8,0 0,8 -8,0 z m 11.555,0 8,0 0,8 -8,0 z m 11.556,0 8,0 0,8 -8,0 z m 11.555,0 8,0 0,8 -8,0 z m 11.556,0 8,0 0,8 -8,0 z m 11.555,0 8,0 0,8 -8,0 z m 11.556,0 8,0 0,8 -8,0 z m 11.555,0 8,0 0,8 -8,0 z m -80.888,42 8,0 0,8 -8,0 z m 11.555,0 8,0 0,8 -8,0 z m 11.556,0 8,0 0,8 -8,0 z m 11.555,0 8,0 0,8 -8,0 z m 11.556,0 8,0 0,8 -8,0 z m 11.555,0 8,0 0,8 -8,0 z m 11.556,0 8,0 0,8 -8,0 z m 11.555,0 8,0 0,8 -8,0 z"
       style="fill:#ffffff;fill-opacity:1;stroke:none" />
  </g>
</svg>
