<?xml version="1.0" encoding="UTF-8" standalone="no"?>
<svg
   xmlns:dc="http://purl.org/dc/elements/1.1/"
   xmlns:cc="http://creativecommons.org/ns#"
   xmlns:rdf="http://www.w3.org/1999/02/22-rdf-syntax-ns#"
   xmlns:svg="http://www.w3.org/2000/svg"
   xmlns="http://www.w3.org/2000/svg"
   version="1.1"
   id="svg2"
   height="128"
   width="128">
  <defs
     id="defs4" />
  <metadata
     id="metadata7">
    <rdf:RDF>
      <cc:Work
         rdf:about="">
        <dc:format>image/svg+xml</dc:format>
        <dc:type
           rdf:resource="http://purl.org/dc/dcmitype/StillImage" />
        <dc:title></dc:title>
      </cc:Work>
    </rdf:RDF>
  </metadata>
  <g
     transform="translate(0,-924.36218)"
     id="layer1">
    <path
       id="path3098"
       d="m 16,1017.6956 0,-18.66664 6.613373,6.61324 6.613373,6.6135 6.948455,-6.5277 c 6.495854,-6.10264 7.275389,-6.20104 11.967652,-1.5087 4.692263,4.6923 4.594001,5.472 -1.508538,11.9679 l -6.527732,6.9483 6.61337,6.6135 6.613373,6.6132 -18.666663,0 -18.666663,0 0,-18.6666 z m 65.280032,12.0534 6.61337,-6.6135 -6.527732,-6.9483 c -6.102539,-6.4959 -6.200801,-7.2756 -1.508538,-11.9679 4.692263,-4.69234 5.471798,-4.59394 11.967661,1.5087 l 6.948449,6.5277 6.613388,-6.6135 6.61337,-6.61324 0,18.66664 0,18.6666 -18.666687,0 -18.666654,0 6.613373,-6.6132 z M 16,959.02873 l 0,-18.66655 18.666663,0 18.666663,0 -6.613373,6.61338 -6.61337,6.61327 6.527732,6.9486 c 6.102539,6.49591 6.200801,7.27531 1.508538,11.96761 -4.692263,4.6923 -5.471798,4.5939 -11.967652,-1.5084 l -6.948455,-6.528 -6.613373,6.6135 L 16,977.69564 16,959.02873 z m 62.927003,12.74551 c -3.14981,-3.7953 -2.704172,-5.7624 2.579373,-11.38651 l 6.387026,-6.7989 -6.61337,-6.61327 -6.613373,-6.61338 18.666654,0 18.666687,0 0,18.52285 0,18.52291 -6.9929,-6.5694 -6.992918,-6.56941 -5.472059,6.04651 c -6.563744,7.2528 -8.623217,7.4736 -13.61512,1.4586 z"
       style="fill:#ffffff;fill-opacity:1" />
  </g>
</svg>
