<?xml version="1.0" encoding="UTF-8" standalone="no"?>
<svg
   xmlns:dc="http://purl.org/dc/elements/1.1/"
   xmlns:cc="http://creativecommons.org/ns#"
   xmlns:rdf="http://www.w3.org/1999/02/22-rdf-syntax-ns#"
   xmlns:svg="http://www.w3.org/2000/svg"
   xmlns="http://www.w3.org/2000/svg"
   height="128"
   width="128"
   version="1.1"
   viewBox="0 0 128 128.00001"
   id="svg2">
  <defs
     id="defs14" />
  <title
     id="title3003">Stylized Headphones v2</title>
  <g
     id="g4182">
    <rect
       style="fill:#3f7fff;fill-opacity:1;stroke:#000000;stroke-width:0.98461735;stroke-linecap:butt;stroke-linejoin:miter;stroke-miterlimit:4;stroke-dasharray:none;stroke-opacity:0"
       id="rect3362"
       width="127.0154"
       height="127.01562"
       x="0.4923006"
       y="0.49208492"
       ry="3.9692383"
       rx="3.9692311" />
    <g
       id="layer1"
       transform="matrix(0.57142864,0,0,0.57142864,-46.000013,-146.80735)"
       style="fill-opacity:1;fill:#ffffff;stroke:none;stroke-opacity:1">
      <path
         id="path2987"
         style="color:#000000;fill-opacity:1;fill:#ffffff;stroke:none;stroke-opacity:1"
         d="m 128.5,363.58 c -11.956,6.9162 -20,19.851 -20,34.656 0,14.806 8.0441,27.709 20,34.625 l 0,-69.281 z" />
      <path
         id="path2992"
         d="m 130,432.36 10,0 0,-91 c 0,-9.4281 11.29,-20.635 20,-24.243 24.637,-10.205 40.363,-10.205 65,0 8.7104,3.608 20,14.815 20,24.243 l 0,91 10,0 0,-91 c 0,-12.018 -9.4036,-24.329 -20,-30 -29.389,-15.729 -55.611,-15.729 -85,0 -10.596,5.671 -20,17.982 -20,30 l 0,91 z"
         style="stroke:none;stroke-width:1px;fill-opacity:1;fill:#ffffff;stroke-opacity:1" />
      <path
         id="path2994"
         style="color:#000000;fill-opacity:1;fill:#ffffff;stroke:none;stroke-opacity:1"
         d="m 256.5,363.58 c 11.956,6.9162 20,19.851 20,34.656 0,14.806 -8.0441,27.709 -20,34.625 l 0,-69.281 z" />
      <rect
         id="rect2987"
         style="color:#000000;fill-opacity:1;fill:#ffffff;stroke:none;stroke-opacity:1"
         ry="4.3000998"
         height="81.046997"
         width="14.768"
         y="357.70001"
         x="141.41" />
      <rect
         id="rect2989"
         style="color:#000000;fill-opacity:1;fill:#ffffff;stroke:none;stroke-opacity:1"
         ry="4.3000998"
         height="81.046997"
         width="14.768"
         y="357.70001"
         x="228.74001" />
    </g>
  </g>
  <metadata
     id="metadata10">
    <rdf:RDF>
      <cc:Work>
        <dc:format>image/svg+xml</dc:format>
        <dc:type
           rdf:resource="http://purl.org/dc/dcmitype/StillImage" />
        <cc:license
           rdf:resource="http://creativecommons.org/publicdomain/zero/1.0/" />
        <dc:publisher>
          <cc:Agent
             rdf:about="http://openclipart.org/">
            <dc:title>Openclipart</dc:title>
          </cc:Agent>
        </dc:publisher>
        <dc:title>Stylized Headphones v2</dc:title>
        <dc:date>2013-09-14T21:28:59</dc:date>
        <dc:description>stylized or pictogram headphones</dc:description>
        <dc:source>https://openclipart.org/detail/183456/stylized-headphones-v2-by-algotruneman-183456</dc:source>
        <dc:creator>
          <cc:Agent>
            <dc:title>algotruneman</dc:title>
          </cc:Agent>
        </dc:creator>
        <dc:subject>
          <rdf:Bag>
            <rdf:li>cans</rdf:li>
            <rdf:li>headphones</rdf:li>
            <rdf:li>stylized</rdf:li>
          </rdf:Bag>
        </dc:subject>
      </cc:Work>
      <cc:License
         rdf:about="http://creativecommons.org/publicdomain/zero/1.0/">
        <cc:permits
           rdf:resource="http://creativecommons.org/ns#Reproduction" />
        <cc:permits
           rdf:resource="http://creativecommons.org/ns#Distribution" />
        <cc:permits
           rdf:resource="http://creativecommons.org/ns#DerivativeWorks" />
      </cc:License>
    </rdf:RDF>
  </metadata>
</svg>
