<?xml version="1.0" encoding="UTF-8" standalone="no"?>
<svg
   xmlns:dc="http://purl.org/dc/elements/1.1/"
   xmlns:cc="http://creativecommons.org/ns#"
   xmlns:rdf="http://www.w3.org/1999/02/22-rdf-syntax-ns#"
   xmlns:svg="http://www.w3.org/2000/svg"
   xmlns="http://www.w3.org/2000/svg"
   version="1.1"
   id="svg2"
   height="128"
   width="128">
  <defs
     id="defs4" />
  <metadata
     id="metadata7">
    <rdf:RDF>
      <cc:Work
         rdf:about="">
        <dc:format>image/svg+xml</dc:format>
        <dc:type
           rdf:resource="http://purl.org/dc/dcmitype/StillImage" />
        <dc:title></dc:title>
      </cc:Work>
    </rdf:RDF>
  </metadata>
  <g
     transform="translate(0,-924.36218)"
     id="layer1">
    <path
       id="rect2985"
       transform="translate(0,924.36218)"
       d="M 16 37 L 16 91 L 112 91 L 112 37 L 16 37 z M 64 40 C 77.254834 40 88 50.745166 88 64 C 88 77.254834 77.254834 88 64 88 C 50.745166 88 40 77.254834 40 64 C 40 50.745166 50.745166 40 64 40 z M 87 40 L 108 40 L 108 52 L 87 52 L 87 40 z M 64 43 C 52.402021 43 43 52.40202 43 64 C 43 75.59798 52.402021 85 64 85 C 75.597979 85 85 75.59798 85 64 C 85 52.40202 75.597979 43 64 43 z M 92 43 L 92 49 L 103 49 L 103 43 L 92 43 z M 64 48 C 72.836556 48 80 55.163444 80 64 C 80 72.836556 72.836556 80 64 80 C 55.163444 80 48 72.836556 48 64 C 48 55.163444 55.163444 48 64 48 z "
       style="fill:#ffffff;fill-opacity:1;stroke:none" />
  </g>
</svg>
