/* XPM */
static char *matrixFont[] = {
/* columns rows colors chars-per-pixel */
"40 32 4 1",
"  c black",
". c gray40",
"o c #BBBBBB",
"O c gray100",
/* pixels */
".oo  O  .oo .oo  .o ooo  o. .oO .oo .oo ",
"O O .O   .o  .O .oO Oo. OO.  .. ooO O O ",
"O O  O  .o  . O ooO o O O O  O  O O  oO ",
" o. .Oo .oo  o.   . .oo .oo  o  .oo  o. ",
".o. Ooo ooo Ooo ooo .oo .o. . . .Oo  oO ",
"O O OoO O . O O Oo. O   O.o O.O  O    O ",
"OoO O O O   O O O   Oo. O O O.O  O    O ",
"o o Ooo ooo Ooo ooo o   ooo o o .Oo oo. ",
". . .   .  .. . oo. .o. oo. .o. .oo O O ",
"Oo. O   OoOOOoO O.O O.O O.O O.o  O. O O ",
"OO  O   OO.OOOO Ooo O.O OOo .oO  O  O.O ",
"O o Ooo O  OO O O   OOO O.o ooO  O  ... ",
"O .oO  OO.O.O .oooO ooo   .  o        o ",
"..O OO O O   O.  o.  .o  O  OoO .Oo .OO ",
" O. OO.oo.O. O  O..  O  .o    o  o  ..o ",
" .  ... . .. .  ooo .    .   o  ooo   . ",
" o   O.  oo .   .oo  .. .   .o. .       ",
".OO oOo ..o ooO   o oOO o o   o OoO . o ",
" oo oO    .   .   o  .o   .  .o o     . ",
". o  .  ..   .  .oO  o  o.  o  . o. ..  ",
" oo .o.  .   o.  o    o       oo .O.   .",
"ooo oOo o.o ooo  oo  oOooOo   .o  ..   o",
"  o  o    .  o   o    o       oo oOo  o ",
"..   .  ..  .    .   .  oOO  o    .  .  ",
"    .   ooo      o  ooo oo   .    . .o. ",
" oo Oo.   o .o  OOO   o  ..  O   oO oOo ",
"o . o     .   . ooo .O  o.  o.O   o  o  ",
".  . oo ..       o   o   o. o . ..   .o ",
".       ooo .oo ooo .o. . .  .  .       ",
"OOO .oO .oO o o ooO ooO o o oo  o       ",
" o    o   o   o   o   o   o oo. o .     ",
" .  ooo ooO  o   o  .o   o  .   o.      ",
};
