<?xml version="1.0" encoding="UTF-8"?>
<svg width="128mm" height="128mm" sodipodi0:docname="broadcast.svg" version="1.1" viewBox="0 0 128 128" xmlns="http://www.w3.org/2000/svg" xmlns:sodipodi0="http://sodipodi.sourceforge.net/DTD/sodipodi-0.0.dtd">
<defs>
<clipPath id="a">
<path d="m19.193 4.2963h128v128h-128zm64.058 63.973 31.49-47.973h-63.084zm0 0.052398 31.49 47.975h-63.084z" fill-rule="evenodd"/>
</clipPath>
</defs>
<sodipodi0:namedview bordercolor="#666666" borderopacity="1.0" pagecolor="#ffffff" showgrid="false"/>
<g transform="translate(-19.193 -4.2963)">
<g transform="matrix(1.0477 0 0 1.0477 -3.9673 -3.1492)">
<g transform="matrix(1 0 0 -1 0 136.05)" clip-path="url(#a)">
<g transform="matrix(1.8713 0 0 1.8713 -26.726 -427.92)" fill="none" stroke="#7f7f7f" stroke-linecap="round" stroke-linejoin="round">
<path d="m81.203 265.03c0 12.407-10.055 22.461-22.461 22.461s-22.465-10.054-22.465-22.461c0-12.406 10.059-22.465 22.465-22.465s22.461 10.059 22.461 22.465z" stroke-width="3.8588"/>
<path d="m74.059 265.03c0 8.457-6.86 15.317-15.317 15.317-8.461 0-15.32-6.86-15.32-15.317 0-8.461 6.859-15.32 15.32-15.32 8.457 0 15.317 6.859 15.317 15.32z" stroke-width="2.6312"/>
<path d="m68.203 265.03c0 5.223-4.238 9.461-9.461 9.461-5.226 0-9.461-4.238-9.461-9.461 0-5.226 4.235-9.461 9.461-9.461 5.223 0 9.461 4.235 9.461 9.461z" stroke-width="1.625"/>
<path d="m63.922 265.03c0 2.864-2.317 5.184-5.18 5.184s-5.183-2.32-5.183-5.184c0-2.863 2.32-5.187 5.183-5.187s5.18 2.324 5.18 5.187z" stroke-width=".89049"/>
</g>
</g>
<g transform="matrix(1.8713 0 0 1.8713 -26.726 -427.92)" fill="none" stroke="#7f7f7f">
<path d="m51.751 289.34 6.9374-22.031 8.0237 22.031" fill="none" stroke="#7f7f7f" stroke-miterlimit="10" stroke-width="1.5094"/>
</g>
<path d="m88.037 68.322c0 2.6311-2.1333 4.7662-4.7662 4.7662-2.6236 0-4.7588-2.1352-4.7588-4.7662 0-2.6254 2.1352-4.7587 4.7588-4.7587 2.6329 0 4.7662 2.1333 4.7662 4.7587z" fill="#7f7f7f" fill-rule="evenodd"/>
<g transform="matrix(2.5505 0 0 2.5505 -66.952 -605.38)" fill="none" stroke="#7f7f7f">
<path d="m57.715 270.37 3.223 0.945-4.735 3.219 6.434 1.703-7.949 3.223 9.464 0.945" fill="none" stroke="#7f7f7f" stroke-linejoin="bevel" stroke-miterlimit="10" stroke-width="1.1074"/>
</g>
</g>
</g>
</svg>
