<?xml version="1.0" encoding="UTF-8"?>
<svg version="1.1" viewBox="0 0 128 128" xmlns="http://www.w3.org/2000/svg">
<g transform="matrix(.97896 0 0 .97896 .20814 4.9598)">
<path d="m41.546 22.699c-18.284 4.8993-29.138 23.698-24.238 41.982 4.8993 18.284 23.698 29.138 41.982 24.238 3.0535-0.81819 4.8579-3.9435 4.0397-6.9971-0.38445-1.4348-1.2629-2.5795-2.4255-3.3129-1.1258-0.74326-1.9809-1.8745-2.3604-3.2909-0.81819-3.0535 0.98623-6.1789 4.0397-6.997l6.4933-1.7399c10.154-2.7207 16.187-13.17 13.466-23.324-4.3571-16.261-22.712-25.459-40.997-20.56zm-11.362 38.532c-3.0535 0.81819-6.1789-0.98623-6.9971-4.0397-0.81819-3.0535 0.98624-6.1789 4.0398-6.997 3.0535-0.81819 6.1789 0.98624 6.997 4.0398 0.81819 3.0535-0.98624 6.1789-4.0397 6.997zm7.0937-17.673c-3.0535 0.81818-6.1789-0.98624-6.9971-4.0398-0.81819-3.0535 0.98624-6.1789 4.0398-6.997 3.0535-0.81819 6.1789 0.98623 6.9971 4.0398 0.81819 3.0535-0.98624 6.1789-4.0398 6.9971zm18.395-4.9288c-3.0535 0.81819-6.1789-0.98624-6.997-4.0398-0.81819-3.0535 0.98623-6.1789 4.0397-6.997 3.0535-0.81819 6.1789 0.98624 6.997 4.0397 0.81819 3.0535-0.98624 6.1789-4.0397 6.9971zm14.98 11.758c-3.0535 0.81819-6.1789-0.98623-6.997-4.0397-0.81819-3.0535 0.98623-6.1789 4.0397-6.9971 3.0535-0.81819 6.1789 0.98624 6.997 4.0398 0.81819 3.0535-0.98623 6.1789-4.0397 6.997z" fill="#7f7f7f"/>
<g transform="matrix(.71413 0 0 .71413 43.544 19.251)">
<g transform="matrix(-.046875 0 0 -.046875 99.247 112)" fill="#7f7f7f" label="Camada 1">
<path d="m414.29 2012.6c-0.71682-0.044-1.2562-0.019-1.9779-0.065-6.9844-0.4504-14.217-1.0188-21.526-1.7142s-14.693-1.5164-22.086-2.5053-14.782-2.1302-22.02-3.4613c-7.2382-1.3311-14.353-2.8602-21.196-4.5821s-13.406-3.6407-19.614-5.8018c-3.104-1.0805-6.132-2.2288-9.0323-3.4283s-5.6735-2.4665-8.3401-3.7909c-2.6666-1.3245-5.2119-2.698-7.6148-4.1536-2.4029-1.4555-4.6815-2.9894-6.7907-4.5821-2.1092-1.5926-4.0492-3.2418-5.8348-4.9776-1.7856-1.7359-3.4139-3.5541-4.8458-5.4392l-3.725-5.9006c-1.0483-2.0406-1.9036-4.1603-2.5383-6.3623-0.63464-2.2019-1.0616-4.4872-1.2527-6.8566-0.19103-2.3695-0.1507-4.8081 0.13186-7.3511 0.28256-2.5431 0.40094-5.0509 0.32965-7.483-0.0713-2.4321-0.32236-4.7971-0.72522-7.1204-0.40287-2.3234-0.96902-4.5741-1.6812-6.7907-0.71219-2.2166-1.572-4.3823-2.5712-6.4941-0.99924-2.1118-2.1313-4.1883-3.3954-6.1974-1.264-2.009-2.647-3.9593-4.1536-5.8676-1.5066-1.9084-3.1519-3.7615-4.8788-5.5711s-3.5472-3.5943-5.4721-5.3073c-1.9249-1.7129-3.9319-3.3593-6.0325-4.9777-2.1007-1.6183-4.3058-3.1882-6.56-4.7139-0.93592-0.6335-2.0072-1.1623-2.9668-1.7802-34.009 75.571-88.226 122.38-199.67 143.13-18.251 3.3992-12.227 25.646 0 25.646 131.58 0 282.95-0.6181 396.04-35.503z" fill="#7f7f7f" stroke-width="0" label="Camada 1"/>
<path d="m411.19 1662.7c-83.186 0-152.37 59.992-166.6 139.08-7.6716 28.631-16.255 54.394-26.668 77.533-28.31 138.59 2.4671 142.1 194.39 133.21 0.72169 0.046 1.2611 0.022 1.9779 0.065 65.235-20.123 117.78-51.585 146.33-101.04 12.648-23.715 19.812-50.823 19.812-79.577 0-93.489-75.752-169.27-169.24-169.27z" fill="#7f7f7f" stroke-width="0" label="Camada 1"/>
<title>Camada 1</title>
<path d="m1484.5 0.05846c-3.5363 0.07747-7.5642 1.6864-11.208 6.494-5.172 7.2107-678.66 942.29-832 1218.4 3.6561 1.1921 7.3995 2.4118 11.175 3.7581 23.663 8.4371 49.818 19.966 77.731 35.668 33.197 18.674 68.9 43.249 105.95 75.456 168.36-273.06 655.71-1311.6 659.49-1319.6 3.4974-8.9819 0.051-15.438-3.5273-17.933-0.2237-0.15587-0.4656-0.30923-0.7251-0.46151-1.703-0.99966-4.1392-1.8733-6.8897-1.8131z" fill="#7f7f7f" label="Camada 1"/>
<path d="m1473.3 6.5525m-850.52 1253.8c-2.5951 5.4105-4.7987 10.346-6.5929 14.735-56.981 139.4-142.4 306.74-166.04 370.56 45.311 7.007 84.675 31.975 110.6 67.413 44.137-51.556 148.4-206.98 241.93-323.75 3.5647-4.4507 7.5348-9.8233 11.834-16.021-33.62-29.728-65.881-52.56-95.795-70.05-28.946-16.924-55.701-28.871-79.478-37.349-5.6831-2.0264-11.144-3.8889-16.449-5.5381z" fill="#7f7f7f" label="Camada 1"/>
</g>
</g>
</g>
</svg>
