<?xml version="1.0" encoding="UTF-8"?>
<svg version="1.1" viewBox="0 0 128 128" xmlns="http://www.w3.org/2000/svg">
<path d="m22 43v-6.5625q0.1875-3.5625 2.8125-6t6.1875-2.4375h9v-3q0-3.75 2.625-6.375t6.375-2.625h30q3.75 0 6.375 2.625t2.625 6.375v3h9q3.5625 0 6.1875 2.4375t2.8125 6v6.5625q0 2.4375-1.7812 4.2188t-4.2188 1.7812v51q0 5.0625-3.4687 8.5313t-8.5313 3.4687h-48q-5.0625 0-8.5313-3.4687t-3.4687-8.5313v-51q-2.4375 0-4.2188-1.7812t-1.7812-4.2188zm6 0h72v-6q0-1.3125-0.8438-2.1563t-2.1563-0.8438h-66q-1.3125 0-2.1563 0.8438t-0.8438 2.1563v6zm6 57q0 2.4375 1.7812 4.2188t4.2188 1.7812h48q2.4375 0 4.2188-1.7812t1.7812-4.2188v-51h-60zm6-3v-39q0-1.3125 0.8438-2.1563t2.1563-0.8438h6q1.3125 0 2.1563 0.8438t0.8438 2.1563v39q0 1.3125-0.8438 2.1563t-2.1563 0.8438h-6q-1.3125 0-2.1563-0.8438t-0.8438-2.1563zm3 0h6v-39h-6zm3-69h36v-3q0-1.3125-0.8438-2.1563t-2.1563-0.8438h-30q-1.3125 0-2.1563 0.8438t-0.8438 2.1563v3zm12 69v-39q0-1.3125 0.8438-2.1563t2.1563-0.8438h6q1.3125 0 2.1563 0.8438t0.8438 2.1563v39q0 1.3125-0.8438 2.1563t-2.1563 0.8438h-6q-1.3125 0-2.1563-0.8438t-0.8438-2.1563zm3 0h6v-39h-6zm15 0v-39q0-1.3125 0.8438-2.1563t2.1563-0.8438h6q1.3125 0 2.1563 0.8438t0.8438 2.1563v39q0 1.3125-0.8438 2.1563t-2.1563 0.8438h-6q-1.3125 0-2.1563-0.8438t-0.8438-2.1563zm3 0h6v-39h-6z" fill="#7f7f7f" stroke-width=".096006"/>
</svg>
