<?xml version="1.0" encoding="UTF-8"?>
<svg version="1.1" viewBox="0 0 128 128" xmlns="http://www.w3.org/2000/svg" xmlns:cc="http://creativecommons.org/ns#" xmlns:dc="http://purl.org/dc/elements/1.1/" xmlns:rdf="http://www.w3.org/1999/02/22-rdf-syntax-ns#">
<metadata>
<rdf:RDF>
<cc:Work rdf:about="">
<dc:format>image/svg+xml</dc:format>
<dc:type rdf:resource="http://purl.org/dc/dcmitype/StillImage"/>
<dc:title/>
</cc:Work>
</rdf:RDF>
</metadata>
<g fill="#7f7f7f">
<path d="m28.924 79.585v-2.4639l9.9022-1.2552v-54.625h-2.3709q-11.762 0-16.085 0.92978l-1.2552 9.7162h-3.1148v-14.644h54.857v14.644h-3.1613l-1.2552-9.7162q-1.3947-0.32542-6.0901-0.55787-4.6954-0.27893-10.274-0.27893h-2.278v54.532l9.9022 1.2552v2.4639h-28.777z"/>
<path d="m70.067 110.76v-2.4639l9.9022-1.2552v-54.625h-2.3709q-11.762 0-16.085 0.92978l-1.2552 9.7162h-3.1148v-14.644h54.857v14.644h-3.1612l-1.2552-9.7162q-1.3947-0.32542-6.0901-0.55787-4.6954-0.27893-10.274-0.27893h-2.278v54.532l9.9022 1.2552v2.4639h-28.777z"/>
</g>
</svg>
