<?xml version="1.0" encoding="UTF-8"?>
<svg version="1.1" viewBox="0 0 128 128" xmlns="http://www.w3.org/2000/svg" xmlns:cc="http://creativecommons.org/ns#" xmlns:dc="http://purl.org/dc/elements/1.1/" xmlns:rdf="http://www.w3.org/1999/02/22-rdf-syntax-ns#">
<metadata>
<rdf:RDF>
<cc:Work rdf:about="">
<dc:format>image/svg+xml</dc:format>
<dc:type rdf:resource="http://purl.org/dc/dcmitype/StillImage"/>
<dc:date>2005-03-10</dc:date>
<dc:creator>
<cc:Agent>
<dc:title>Jakub Steiner</dc:title>
</cc:Agent>
</dc:creator>
<dc:source>http://jimmac.musichall.cz</dc:source>
<dc:subject>
<rdf:Bag>
<rdf:li>help</rdf:li>
<rdf:li>browser</rdf:li>
<rdf:li>documentation</rdf:li>
<rdf:li>docs</rdf:li>
<rdf:li>man</rdf:li>
<rdf:li>info</rdf:li>
</rdf:Bag>
</dc:subject>
<cc:license rdf:resource="http://creativecommons.org/publicdomain/zero/1.0/"/>
</cc:Work>
<cc:License rdf:about="http://creativecommons.org/publicdomain/zero/1.0/">
<cc:permits rdf:resource="http://creativecommons.org/ns#Reproduction"/>
<cc:permits rdf:resource="http://creativecommons.org/ns#Distribution"/>
<cc:permits rdf:resource="http://creativecommons.org/ns#DerivativeWorks"/>
</cc:License>
</rdf:RDF>
</metadata>
<g transform="matrix(2.4691 0 0 2.4691 4.7407 4.7407)">
<path d="m15.1 7.56 5.388 9.379c-1.796 0.998-2.594 1.733-3.486 3.361l-9.685-4.558c1.197-2.993 4.989-6.984 7.783-8.181m25.17 7.571-9.287 5.335c-1.019-1.716-1.872-2.444-3.359-3.359l4.545-9.682c3.1078 0.68264 7.6351 5.0838 8.101 7.706m-7.379 25.26-5.423-9.426c1.631-0.916 2.47-1.786 3.466-3.463l9.837 4.612c-1.212 3.03-5.253 7.07-7.879 8.277m-25.372-7.6 9.347-5.388c0.998 1.796 1.733 2.438 3.392 3.486l-4.558 9.684c-2.993-1.197-6.984-5.188-8.181-7.782" fill="#7f7f7f"/>
<circle cx="24" cy="24" r="7.5" fill="none" stroke="#7f7f7f" stroke-width=".88"/>
<circle cx="24" cy="24" r="19" fill="none" stroke="#7f7f7f" stroke-width=".88"/>
</g>
</svg>
