<?xml version="1.0" encoding="UTF-8"?>
<svg enable-background="new 0 0 2761.735 1427.261" version="1.1" viewBox="0 0 128 128" xml:space="preserve" xmlns="http://www.w3.org/2000/svg">
<path d="m110.44 64s-20.792 23.161-46.44 23.161c-25.648 0-46.44-23.161-46.44-23.161s20.792-23.161 46.44-23.161c25.648 0 46.44 23.161 46.44 23.161z" fill="none" stroke="#7f7f7f" stroke-miterlimit="10" stroke-width="2.322"/><circle cx="64" cy="64" r="23.161" fill="none" stroke="#7f7f7f" stroke-miterlimit="10" stroke-width="2.322"/><path d="m75.776 56.133c-0.17829 3.126-2.7693 5.606-5.9399 5.606-3.2862 0-5.9501-2.6639-5.9501-5.9501 0-2.4798 1.5172-4.6049 3.6738-5.4987-1.1375-0.29453-2.3305-0.45137-3.5601-0.45137-7.821 0-14.161 6.3402-14.161 14.161 0 7.8209 6.3402 14.161 14.161 14.161s14.161-6.3402 14.161-14.161c-3.6e-5 -2.9111-0.87858-5.6168-2.3847-7.8669z" fill="#7f7f7f" stroke-width=".036281"/>
</svg>
