<?xml version="1.0" encoding="UTF-8"?>
<svg width="32.6mm" height="32.6mm" version="1.1" viewBox="0 0 32.6 32.6" xmlns="http://www.w3.org/2000/svg">
<g transform="translate(-18.056 -13.591)">
<path d="m41.505 13.608c-1.44 0.09093-2.8302 0.56408-3.8849 1.5251l-19.186 17.48 1.5217 1.3858 19.185-17.48c0.84369-0.76869 2.1356-1.0821 3.5624-0.93159 1.4268 0.15048 2.924 0.783 3.9687 1.7445 1.0283 0.9465 1.6927 2.2889 1.84 3.5685 0.14731 1.2796-0.20283 2.4413-1.0429 3.2067l-21.393 19.491c-0.68855 0.62736-1.4369 0.75548-2.2907 0.6262-0.85382-0.12928-1.7558-0.59049-2.3203-1.1048-0.56732-0.51689-1.0759-1.3357-1.2189-2.1102-0.14305-0.7745-5e-3 -1.4543 0.69361-2.0909l19.957-18.184c0.34541-0.31471 0.63144-0.37246 0.95415-0.35095 0.32272 0.02148 0.68095 0.17776 0.91331 0.37918 0.25465 0.22087 0.48029 0.59199 0.52813 0.91747s-0.0013 0.58674-0.35772 0.91169l-18.151 16.538 1.521 1.3858 18.152-16.538c0.80637-0.7347 1.0917-1.7177 0.96824-2.5574-0.12343-0.83963-0.57444-1.5545-1.1774-2.0775-0.5813-0.50388-1.3565-0.85541-2.2393-0.91426s-1.8746 0.22973-2.6322 0.92004l-19.957 18.184c-1.2003 1.0936-1.5255 2.5461-1.2936 3.802 0.23198 1.256 0.93558 2.3659 1.8189 3.1707 0.88613 0.80736 2.1097 1.4433 3.4885 1.6521 1.3788 0.20876 2.9708-0.08462 4.1652-1.1728l21.392-19.491c1.3918-1.268 1.8611-3.0662 1.6619-4.7971-0.19927-1.731-1.0468-3.4499-2.4512-4.7426v-7.24e-4c-1.4222-1.3088-3.3285-2.1096-5.2503-2.3123-0.48046-0.05067-0.96569-0.06238-1.4457-0.03207z" color="#000000" color-rendering="auto" fill="#4d4d4d" image-rendering="auto" shape-rendering="auto" solid-color="#000000" style="isolation:auto;mix-blend-mode:normal;text-decoration-color:#000000;text-decoration-line:none;text-decoration-style:solid;text-indent:0;text-transform:none;white-space:normal"/>
</g>
</svg>
