<?xml version="1.0" encoding="UTF-8" standalone="no"?>
<!-- Created with Inkscape (http://www.inkscape.org/) -->

<svg
   width="32.599998mm"
   height="32.599998mm"
   viewBox="0 0 32.599999 32.599998"
   version="1.1"
   id="svg1163"
   sodipodi:docname="paperclip.svg"
   inkscape:version="1.1.2 (0a00cf5339, 2022-02-04)"
   xmlns:inkscape="http://www.inkscape.org/namespaces/inkscape"
   xmlns:sodipodi="http://sodipodi.sourceforge.net/DTD/sodipodi-0.dtd"
   xmlns="http://www.w3.org/2000/svg"
   xmlns:svg="http://www.w3.org/2000/svg">
  <sodipodi:namedview
     id="namedview1165"
     pagecolor="#ffffff"
     bordercolor="#666666"
     borderopacity="1.0"
     inkscape:pageshadow="2"
     inkscape:pageopacity="0.0"
     inkscape:pagecheckerboard="0"
     inkscape:document-units="mm"
     showgrid="false"
     fit-margin-top="0"
     fit-margin-left="0"
     fit-margin-right="0"
     fit-margin-bottom="0"
     inkscape:zoom="3.6233469"
     inkscape:cx="69.548958"
     inkscape:cy="91.352004"
     inkscape:window-width="1600"
     inkscape:window-height="1125"
     inkscape:window-x="1920"
     inkscape:window-y="0"
     inkscape:window-maximized="1"
     inkscape:current-layer="layer1" />
  <defs
     id="defs1160" />
  <g
     inkscape:label="Layer 1"
     inkscape:groupmode="layer"
     id="layer1"
     transform="translate(-18.056146,-13.591088)">
    <path
       style="color:#000000;font-style:normal;font-variant:normal;font-weight:normal;font-stretch:normal;font-size:medium;line-height:normal;font-family:sans-serif;text-indent:0;text-align:start;text-decoration:none;text-decoration-line:none;text-decoration-style:solid;text-decoration-color:#000000;letter-spacing:normal;word-spacing:normal;text-transform:none;writing-mode:lr-tb;direction:ltr;baseline-shift:baseline;text-anchor:start;white-space:normal;clip-rule:nonzero;display:inline;overflow:visible;visibility:visible;isolation:auto;mix-blend-mode:normal;color-interpolation:sRGB;color-interpolation-filters:linearRGB;solid-color:#000000;solid-opacity:1;fill:#4d4d4d;fill-opacity:1;fill-rule:nonzero;stroke:none;stroke-width:1.50831;stroke-linecap:butt;stroke-linejoin:miter;stroke-miterlimit:4;stroke-dasharray:none;stroke-dashoffset:0;stroke-opacity:1;color-rendering:auto;image-rendering:auto;shape-rendering:auto;text-rendering:auto;enable-background:accumulate"
       d="m 41.505229,13.607699 c -1.439951,0.09093 -2.830191,0.564076 -3.884931,1.525052 L 18.434367,32.612793 19.956081,33.99862 39.141316,16.518581 c 0.843693,-0.768689 2.13558,-1.082066 3.562416,-0.931588 1.426846,0.150484 2.92395,0.783003 3.968733,1.744478 1.028277,0.946503 1.692696,2.288863 1.84001,3.568506 0.147309,1.27965 -0.202829,2.44128 -1.042881,3.206653 L 26.076766,43.597398 c -0.688549,0.627358 -1.436854,0.755483 -2.290668,0.6262 -0.853822,-0.129284 -1.75575,-0.590488 -2.320265,-1.104825 -0.567317,-0.516894 -1.075869,-1.335668 -1.218921,-2.110164 -0.143054,-0.774496 -0.005,-1.454262 0.693613,-2.090934 L 40.897534,20.73381 c 0.345409,-0.314713 0.631437,-0.372463 0.954153,-0.350951 0.322716,0.02148 0.680948,0.177762 0.913312,0.379177 0.254647,0.220872 0.480289,0.591989 0.528133,0.91747 0.04784,0.325485 -0.0013,0.586745 -0.357724,0.911694 L 24.784616,39.128757 26.305629,40.514589 44.457133,23.97703 c 0.806374,-0.7347 1.091658,-1.717737 0.968241,-2.557366 -0.12343,-0.839628 -0.574442,-1.554482 -1.177388,-2.077462 -0.581305,-0.503884 -1.356469,-0.855406 -2.239271,-0.91426 -0.8828,-0.05885 -1.874566,0.229734 -2.632194,0.920038 L 19.419503,37.531844 c -1.200285,1.093604 -1.525548,2.54608 -1.293563,3.80205 0.231976,1.255969 0.935579,2.365932 1.81887,3.170711 0.886133,0.807361 2.1097,1.443332 3.488491,1.652097 1.37879,0.208765 2.970819,-0.08462 4.165189,-1.17282 L 48.990606,25.49246 c 1.391771,-1.268044 1.861123,-3.066168 1.661853,-4.797148 -0.199274,-1.730979 -1.04683,-3.449895 -2.45123,-4.74261 v -7.24e-4 c -1.422189,-1.308783 -3.32847,-2.10959 -5.250327,-2.312277 -0.480461,-0.05067 -0.965691,-0.06238 -1.445673,-0.03207 z"
       id="path6344"
       inkscape:connector-curvature="0"
       inkscape:export-filename="/home/tj/Pictures/paperclip-8.png"
       inkscape:export-xdpi="6.23"
       inkscape:export-ydpi="6.23" />
  </g>
</svg>
