<?xml version="1.0" encoding="UTF-8"?>
<svg version="1.1" viewBox="0 0 128 128" xmlns="http://www.w3.org/2000/svg" xmlns:cc="http://creativecommons.org/ns#" xmlns:dc="http://purl.org/dc/elements/1.1/" xmlns:rdf="http://www.w3.org/1999/02/22-rdf-syntax-ns#">
<metadata>
<rdf:RDF>
<cc:Work rdf:about="">
<dc:format>image/svg+xml</dc:format>
<dc:type rdf:resource="http://purl.org/dc/dcmitype/StillImage"/>
<dc:title/>
</cc:Work>
</rdf:RDF>
</metadata>
<g transform="translate(0 -924.36)" fill="#7f7f7f">
<path transform="translate(0 924.36)" d="m16 37v54h96v-54h-96zm48 3c13.255 0 24 10.745 24 24s-10.745 24-24 24-24-10.745-24-24 10.745-24 24-24zm23 0h21v12h-21v-12zm-23 3c-11.598 0-21 9.402-21 21s9.402 21 21 21 21-9.402 21-21-9.402-21-21-21zm28 0v6h11v-6h-11zm-28 5c8.8366 0 16 7.1634 16 16s-7.1634 16-16 16-16-7.1634-16-16 7.1634-16 16-16z" fill="#7f7f7f"/>
</g>
</svg>
