<?xml version="1.0" encoding="UTF-8"?>
<svg version="1.1" viewBox="0 0 128 128" xmlns="http://www.w3.org/2000/svg">
<path d="m72.197 16.017c-4.3696 0.16098-9.3735 1.4494-12.397 5.0784-0.12943 0.16129-0.2087 0.31765-0.28998 0.50784-0.9775 2.0843-1.3795 3.9158-0.72496 5.5863 0.66091 1.6868 2.1309 2.403 3.1898 2.8294 1.0254 0.41289 1.9573 0.71363 2.4649 1.0157 0.29386 0.17487 0.42295 0.33234 0.50748 0.43529 0.08451 0.10295 0.15019 0.23264 0.21749 0.58039 0.16411 0.84791 0.02204 1.1533-0.14499 1.451-0.13666 0.24355-0.36555 0.4276-0.79746 0.65294-0.40406 0.21081-0.79888 0.34416-1.1599 0.4353-0.18053 0.04557-0.39607 0.12506-0.50748 0.1451-0.1114 0.01996-0.23134 0.0069-0.14499 0h-25.374c-1.2093 0.02626-2.2212 1.0389-2.2474 2.249v25.755c-0.04012 0.28799-0.22508 1.1731-0.57997 1.7412-0.23718 0.37964-0.44563 0.54981-0.65247 0.65294-0.20684 0.10312-0.5506 0.16026-1.3774 0-0.34656-0.06719-0.47607-0.13238-0.57997-0.21765-0.1039-0.08525-0.19232-0.21764-0.36248-0.50784-0.2802-0.47785-0.60565-1.4223-1.015-2.4667-0.41945-1.0703-1.1469-2.5271-2.8274-3.1922-1.6701-0.66098-3.5009-0.25202-5.5822 0.72549-0.19005 0.08135-0.34631 0.16068-0.50747 0.2902-3.0409 2.5371-4.5113 6.4983-5.0023 10.302-0.0068 0.0527 0.0035 0.03548 0 0.07255-8.78e-4 0.0093 9.88e-4 0.0541 0 0.07255 9.02e-4 -0.01346-0.0097-0.0715 0 0.07255 0.0013 0.01927 9.5e-5 0.07301 0 0.07255 1.3e-5 1.67e-4 -2.2e-5 0.21758 0 0.21765-0.22507 1.3028-0.34238 2.6384-0.28999 4.0627 0.16086 4.3727 1.4483 9.3803 5.0747 12.406 0.16117 0.12952 0.31742 0.20885 0.50748 0.2902 2.0813 0.97752 3.9121 1.3865 5.5822 0.72549 1.6805-0.66508 2.4079-2.1218 2.8274-3.1922 0.4093-1.0444 0.73475-1.9888 1.015-2.4667 0.17017-0.2902 0.25858-0.42258 0.36248-0.50784s0.23342-0.15048 0.57997-0.21765c0.84729-0.16423 1.1525-0.02206 1.4499 0.1451 0.24337 0.13676 0.42728 0.36581 0.65247 0.79804 0.41214 0.79107 0.56971 1.7402 0.57997 1.8137v0.07255l0.14499 25.247c0.02624 1.2101 1.0381 2.2228 2.2474 2.249l25.519-0.14509c0.03531 8.2e-4 0.03719 8.2e-4 0.0725 0 0 0 1.9461-0.0263 3.8423-1.0157 0.92871-0.48456 1.9863-1.2262 2.6824-2.4667 0.70204-1.251 0.90878-2.8718 0.57997-4.5706-0.37439-1.9343-1.6419-3.2416-2.8999-3.9902-1.1975-0.7126-2.3268-1.0893-3.0448-1.3784-0.32596-0.13126-0.53707-0.2264-0.65247-0.2902 0.0044-0.08105-0.02443-0.22078 0-0.36274 0.05213-0.30293 0.16601-0.722 0.36248-1.2333 1.7475-1.9272 5.5183-3.2846 8.9171-3.4098 1.2977-0.0478 2.5808 0.0864 3.5523 0.2902 0.08585 0.0308 0.20714 0.06185 0.28999 0.07255 2.916 0.37691 5.8596 1.6024 7.3221 3.1922 0.21408 0.53939 0.31594 1.0158 0.36248 1.3059 0.02111 0.13096 0.07006 0.21774 0.0725 0.2902 0.05162-0.12782-0.02251 0.08984-0.72496 0.36274-0.69738 0.27093-1.8887 0.51745-3.1173 1.2333-1.2757 0.74328-2.5254 2.1279-2.8999 4.0627-0.32881 1.6988-0.12207 3.3195 0.57997 4.5706 0.69608 1.2404 1.7537 1.9821 2.6824 2.4667 1.8962 0.98932 3.8423 1.0157 3.8423 1.0157 0.03531 8.2e-4 0.03719 8.2e-4 0.0725 0h25.301c1.2092-0.0262 2.2212-1.0389 2.2474-2.249l-0.21749-25.537c8.2e-4 -0.03534 8.2e-4 -0.03722 0-0.07255 0 0 0.0272-1.8624-0.94245-3.7725-0.47937-0.94435-1.2346-2.0591-2.4649-2.7569-1.2499-0.70891-2.8711-0.90916-4.5673-0.58039-1.9329 0.37466-3.2392 1.6431-3.9873 2.902-0.71209 1.1983-1.0885 2.3285-1.3774 3.0471-0.13713 0.34103-0.29946 0.54192-0.36248 0.65294-0.07577-0.0063-0.1765 0.01949-0.28999 0-0.30271-0.05217-0.72148-0.16613-1.2324-0.36274-1.9258-1.7488-3.2822-5.5223-3.4073-8.9235-0.0479-1.3026 0.08219-2.4903 0.28998-3.4823 0.0049-0.04825 0.0049-0.09685 0-0.1451 8.23e-4 -0.03534 8.23e-4 -0.03721 0-0.07255 0.0049-0.03954 0.06698-0.10231 0.0725-0.1451 0.3775-2.9247 1.6339-5.781 3.2623-7.2549 0.39107-0.15743 0.74598-0.28749 1.015-0.36274 0.30921-0.08652 0.54758-0.06944 0.50748-0.07255 0.0065 0.0093 0.02135-0.07729 0.0725 0 0.0982 0.14853 0.37179 0.80796 0.65247 1.5961 0.28512 0.80058 0.62707 1.8454 1.3774 2.8294 0.76711 1.006 1.9735 1.943 3.5523 2.249 3.167 0.61386 5.6139-0.94825 6.7422-2.7569 1.0759-1.7247 1.2652-3.4141 1.3049-3.9176 1e-3 -0.02417 1e-3 -0.04839 0-0.07255 3e-3 -0.0706 3e-3 -0.0745 0-0.1451v-25.61c-0.0262-1.2101-1.0381-2.2228-2.2474-2.249h-26.099c-0.5469-0.12662-1.3585-0.48776-1.6674-0.79804-0.20602-0.20694-0.30352-0.29389-0.36248-0.50784-0.05897-0.21395-0.05062-0.59729 0.0725-1.2333 0.06712-0.34681 0.13228-0.47642 0.21749-0.58039 0.0852-0.10397 0.21749-0.19246 0.50748-0.36275 0.47751-0.28041 1.4212-0.60609 2.4649-1.0157 1.0695-0.41976 2.5252-1.1477 3.1898-2.8294 0.66051-1.6713 0.25184-3.5035-0.72496-5.5863-0.0813-0.19019-0.16055-0.34656-0.28999-0.50784-2.4004-2.8813-6.0358-4.1538-9.5695-4.7157-0.01023-0.0029-0.03482 0.0123-0.0725 0-0.02251-0.0074-0.04612 0.0091-0.0725 0-0.05276-0.01809-0.09576 0.01876-0.14499 0-0.0081-0.0031 0.0077-0.06953 0-0.07255-0.04542-0.02959-0.09407-0.05394-0.14499-0.07255-0.01739-0.01073-0.05473 0.0094-0.0725 0 0.0566 0.0079-0.08236 0.0043-0.0725 0 0.0032-0.0014 2e-3 -0.07013 0-0.07255-0.04679-0.01866-0.10525-0.06528-0.14499-0.07255-0.05428-0.01138-0.03976 0.0014-0.0725 0-0.13898-0.02842-0.15798 0.0012-0.14499 0-1.3822-0.26777-2.8252-0.34635-4.3498-0.29018z" fill="#7f7f7f" fill-rule="evenodd" stroke-width="3.585"/>
</svg>
