<?xml version="1.0" encoding="UTF-8"?>
<svg version="1.1" viewBox="0 0 128 128" xmlns="http://www.w3.org/2000/svg" xmlns:cc="http://creativecommons.org/ns#" xmlns:dc="http://purl.org/dc/elements/1.1/" xmlns:rdf="http://www.w3.org/1999/02/22-rdf-syntax-ns#">
<metadata>
<rdf:RDF>
<cc:Work rdf:about="">
<dc:format>image/svg+xml</dc:format>
<dc:type rdf:resource="http://purl.org/dc/dcmitype/StillImage"/>
<dc:title/>
</cc:Work>
</rdf:RDF>
</metadata>
<g transform="translate(0 -924.36)" fill="#7f7f7f">
<path d="m19.4 964.36c-1.8839 0-3.4004 1.774-3.4004 3.9785v40.043c0 2.2044 1.5165 3.9785 3.4004 3.9785h57.199c1.8839 0 3.4004-1.7741 3.4004-3.9785v-9.793l26.781 13.391a3.6068 3.6069 0 0 0 5.2188-3.2265v-40.787a3.6068 3.6069 0 0 0-3.7129-3.6035 3.6068 3.6069 0 0 0-1.5059 0.3789l-26.781 13.391v-9.793c0-2.2045-1.5165-3.9785-3.4004-3.9785h-57.199zm7.1504 8h42.898c1.4129 0 2.5508 1.1827 2.5508 2.6523v26.695c0 1.4697-1.1378 2.6524-2.5508 2.6524h-42.898c-1.4129 0-2.5508-1.1827-2.5508-2.6524v-26.695c0-1.4696 1.1378-2.6523 2.5508-2.6523z" fill="#7f7f7f"/>
</g>
</svg>
