<?xml version="1.0" encoding="UTF-8"?>
<svg version="1.1" viewBox="0 0 128 128" xmlns="http://www.w3.org/2000/svg" xmlns:cc="http://creativecommons.org/ns#" xmlns:dc="http://purl.org/dc/elements/1.1/" xmlns:rdf="http://www.w3.org/1999/02/22-rdf-syntax-ns#">
<metadata>
<rdf:RDF>
<cc:Work rdf:about="">
<dc:format>image/svg+xml</dc:format>
<dc:type rdf:resource="http://purl.org/dc/dcmitype/StillImage"/>
<dc:title/>
</cc:Work>
</rdf:RDF>
</metadata>
<g transform="translate(0 -924.36)" fill="#7f7f7f">
<path d="m63.973 940.36c-22.927 0-41.514 18.508-41.514 41.339s18.586 41.339 41.514 41.339 41.514-18.508 41.514-41.339-18.586-41.339-41.514-41.339zm15.568 17.225c13.374 0 24.216 10.796 24.216 24.114s-10.842 24.114-24.216 24.114-24.216-10.796-24.216-24.114 10.842-24.114 24.216-24.114zm1.7297 3.4449c-11.464 0-20.757 9.254-20.757 20.669s9.2931 20.669 20.757 20.669 20.757-9.254 20.757-20.669-9.2931-20.669-20.757-20.669zm0 6.8898c7.6424 0 13.838 6.1694 13.838 13.78 0 7.6103-6.1954 13.78-13.838 13.78s-13.838-6.1694-13.838-13.78c0-7.6103 6.1954-13.78 13.838-13.78zm3.7838 53.342c-6.2893 3.3308-13.461 5.2212-21.081 5.2212-7.5689 0-14.687-1.8784-20.946-5.1673l-27.027 15.044 48-6.5399 48 6.2708-26.946-14.829z" fill="#7f7f7f"/>
</g>
</svg>
