<?xml version="1.0" encoding="UTF-8" standalone="no"?>
<!-- Created with Inkscape (http://www.inkscape.org/) -->

<svg
   xmlns:dc="http://purl.org/dc/elements/1.1/"
   xmlns:cc="http://creativecommons.org/ns#"
   xmlns:rdf="http://www.w3.org/1999/02/22-rdf-syntax-ns#"
   xmlns:svg="http://www.w3.org/2000/svg"
   xmlns="http://www.w3.org/2000/svg"
   xmlns:sodipodi="http://sodipodi.sourceforge.net/DTD/sodipodi-0.dtd"
   xmlns:inkscape="http://www.inkscape.org/namespaces/inkscape"
   id="svg2"
   version="1.1"
   inkscape:version="0.48.3.1 r9886"
   width="32"
   height="32"
   sodipodi:docname="arrow-right.svg">
  <metadata
     id="metadata8">
    <rdf:RDF>
      <cc:Work
         rdf:about="">
        <dc:format>image/svg+xml</dc:format>
        <dc:type
           rdf:resource="http://purl.org/dc/dcmitype/StillImage" />
        <dc:title />
      </cc:Work>
    </rdf:RDF>
  </metadata>
  <defs
     id="defs6" />
  <sodipodi:namedview
     pagecolor="#000000"
     bordercolor="#666666"
     borderopacity="1"
     objecttolerance="10"
     gridtolerance="10"
     guidetolerance="10"
     inkscape:pageopacity="1"
     inkscape:pageshadow="2"
     inkscape:window-width="1334"
     inkscape:window-height="748"
     id="namedview4"
     showgrid="false"
     showborder="true"
     inkscape:zoom="17.9375"
     inkscape:cx="16"
     inkscape:cy="16"
     inkscape:window-x="29"
     inkscape:window-y="-3"
     inkscape:window-maximized="1"
     inkscape:current-layer="g2987" />
  <g
     id="g2987"
     transform="translate(-1.6271189,-95.457627)">
    <path
       style="fill:#ffffff;fill-opacity:1"
       d="m 13.865689,97.851604 c -0.701963,0.0319 -1.398782,0.28506 -1.749946,0.71872 -0.362143,0.44723 -0.437486,1.04587 -0.437486,3.374886 l 0,2.82803 -4.0233126,0.0781 c -5.3576295,0.10615 -4.9764088,-0.39175 -4.9764088,6.49197 0,6.86424 -0.3236372,6.46071 5.1092168,6.46071 l 3.8905046,0 0,3.07021 c 0,2.37333 0.08969,3.19526 0.390613,3.62488 0.556384,0.79435 1.999524,0.74962 3.257711,-0.10156 3.884569,-2.62795 16.741427,-12.0675 17.030723,-12.50739 0.267714,-0.40707 0.291146,-0.67799 0.09375,-1.04684 -0.211973,-0.39607 -14.376756,-10.876016 -17.093221,-12.647996 -0.398214,-0.25976 -0.94617,-0.36858 -1.492141,-0.34374 z"
       id="path3049"
       inkscape:connector-curvature="0" />
  </g>
</svg>
