<?xml version="1.0" encoding="UTF-8" standalone="no"?>
<!-- Created with Inkscape (http://www.inkscape.org/) -->

<svg
   xmlns:dc="http://purl.org/dc/elements/1.1/"
   xmlns:cc="http://creativecommons.org/ns#"
   xmlns:rdf="http://www.w3.org/1999/02/22-rdf-syntax-ns#"
   xmlns:svg="http://www.w3.org/2000/svg"
   xmlns="http://www.w3.org/2000/svg"
   xmlns:sodipodi="http://sodipodi.sourceforge.net/DTD/sodipodi-0.dtd"
   xmlns:inkscape="http://www.inkscape.org/namespaces/inkscape"
   id="svg2"
   version="1.1"
   inkscape:version="0.48.2 r9819"
   width="16"
   height="16"
   sodipodi:docname="user-identity.png">
  <metadata
     id="metadata8">
    <rdf:RDF>
      <cc:Work
         rdf:about="">
        <dc:format>image/svg+xml</dc:format>
        <dc:type
           rdf:resource="http://purl.org/dc/dcmitype/StillImage" />
        <dc:title></dc:title>
      </cc:Work>
    </rdf:RDF>
  </metadata>
  <defs
     id="defs6" />
  <sodipodi:namedview
     pagecolor="#000000"
     bordercolor="#666666"
     borderopacity="1"
     objecttolerance="10"
     gridtolerance="10"
     guidetolerance="10"
     inkscape:pageopacity="1"
     inkscape:pageshadow="2"
     inkscape:window-width="1366"
     inkscape:window-height="748"
     id="namedview4"
     showgrid="false"
     inkscape:zoom="35.75"
     inkscape:cx="8"
     inkscape:cy="8"
     inkscape:window-x="-2"
     inkscape:window-y="-3"
     inkscape:window-maximized="1"
     inkscape:current-layer="svg2" />
  <path
     style="fill:#fefefe"
     d="M 4.8144725,15.97239 C 3.8030491,15.85543 1.9101555,15.36718 1.499191,15.11726 1.2536218,14.96792 1.066,14.74289 1.066,14.59771 1.066,14.45686 1.2582296,13.81393 1.4931769,13.16898 2.0603829,11.61195 2.382475,11.30909 4.2491312,10.57761 5.0721846,10.25508 5.8425801,9.88402 5.9611211,9.75303 6.346301,9.32741 6.2382434,7.9274 5.7348507,6.82142 5.499258,6.30382 5.2625785,5.88032 5.2088964,5.88032 c -0.1310462,0 -0.5282979,-1.0087 -0.5282979,-1.34145 0,-0.14577 0.045182,-0.26509 0.1004055,-0.26515 0.055223,-7e-5 0.106391,-0.44213 0.1137065,-0.98236 0.010911,-0.80574 0.080343,-1.10541 0.3864042,-1.66774 1.0035043,-1.84377 3.2542815,-2.17343 4.7736223,-0.69916 0.691123,0.67062 0.915998,1.25384 0.917194,2.37879 4.01e-4,0.41333 0.06027,0.70284 0.145257,0.70284 0.232373,0 0.01645,0.7627 -0.5661,1.9996 -0.829048,1.76028 -1.0042931,3.09582 -0.48206,3.67379 0.177925,0.19692 0.903972,0.56423 1.773831,0.8974 1.886903,0.72272 2.263971,1.08901 2.786552,2.70695 0.207252,0.64167 0.340502,1.28109 0.296113,1.42095 -0.106192,0.33458 -0.990379,0.73982 -2.22225,1.01848 -0.745351,0.16861 -1.798718,0.23473 -4.2072661,0.26412 -1.767137,0.0216 -3.4238279,0.0148 -3.6815354,-0.015 z"
     id="path2995"
     inkscape:connector-curvature="0" />
</svg>
