<?xml version="1.0" encoding="UTF-8" standalone="no"?>
<!-- Created with Inkscape (http://www.inkscape.org/) -->

<svg
   xmlns:dc="http://purl.org/dc/elements/1.1/"
   xmlns:cc="http://creativecommons.org/ns#"
   xmlns:rdf="http://www.w3.org/1999/02/22-rdf-syntax-ns#"
   xmlns:svg="http://www.w3.org/2000/svg"
   xmlns="http://www.w3.org/2000/svg"
   xmlns:sodipodi="http://sodipodi.sourceforge.net/DTD/sodipodi-0.dtd"
   xmlns:inkscape="http://www.inkscape.org/namespaces/inkscape"
   width="16"
   height="16"
   id="svg2"
   version="1.1"
   inkscape:version="0.48.2 r9819"
   sodipodi:docname="Documento nuevo 1">
  <defs
     id="defs4" />
  <sodipodi:namedview
     id="base"
     pagecolor="#000000"
     bordercolor="#666666"
     borderopacity="1.0"
     inkscape:pageopacity="1"
     inkscape:pageshadow="2"
     inkscape:zoom="1"
     inkscape:cx="8"
     inkscape:cy="8"
     inkscape:document-units="px"
     inkscape:current-layer="layer1"
     showgrid="false"
     inkscape:window-width="1366"
     inkscape:window-height="748"
     inkscape:window-x="-2"
     inkscape:window-y="-3"
     inkscape:window-maximized="1" />
  <metadata
     id="metadata7">
    <rdf:RDF>
      <cc:Work
         rdf:about="">
        <dc:format>image/svg+xml</dc:format>
        <dc:type
           rdf:resource="http://purl.org/dc/dcmitype/StillImage" />
        <dc:title></dc:title>
      </cc:Work>
    </rdf:RDF>
  </metadata>
  <g
     inkscape:label="Capa 1"
     inkscape:groupmode="layer"
     id="layer1"
     transform="translate(0,-1036.3622)">
    <path
       style="fill:#ffffff;fill-opacity:1;stroke:none"
       d="M 0 2 L 0 3.75 C 2.8705064 5.9241216 5.5736033 7.9285391 8 9.75 L 16 3.75 L 16 2 L 0 2 z M 0 6.25 L 0 12.71875 C 1.4387847 11.647568 2.8786225 10.577692 4.3125 9.5 C 2.8766703 8.4144507 1.4355308 7.3359255 0 6.25 z M 16 6.25 C 14.565266 7.3369875 13.126384 8.4185459 11.6875 9.5 C 13.12333 10.58555 14.564469 11.664075 16 12.75 L 16 6.25 z M 5.96875 10.75 C 4.5308925 11.832851 3.095354 12.918802 1.65625 14 L 14.3125 14 C 12.874765 12.916977 11.439 11.83133 10 10.75 L 8.59375 11.8125 C 8.2527204 12.064107 7.7472796 12.064107 7.40625 11.8125 L 5.96875 10.75 z "
       transform="translate(0,1036.3622)"
       id="rect2985" />
  </g>
</svg>
