<?xml version="1.0" encoding="UTF-8" standalone="no"?>
<!-- Created with Inkscape (http://www.inkscape.org/) -->

<svg
   xmlns:dc="http://purl.org/dc/elements/1.1/"
   xmlns:cc="http://creativecommons.org/ns#"
   xmlns:rdf="http://www.w3.org/1999/02/22-rdf-syntax-ns#"
   xmlns:svg="http://www.w3.org/2000/svg"
   xmlns="http://www.w3.org/2000/svg"
   xmlns:sodipodi="http://sodipodi.sourceforge.net/DTD/sodipodi-0.dtd"
   xmlns:inkscape="http://www.inkscape.org/namespaces/inkscape"
   width="32"
   height="32"
   id="svg2"
   version="1.1"
   inkscape:version="0.48.2 r9819"
   sodipodi:docname="maxizespace.svg">
  <defs
     id="defs4" />
  <sodipodi:namedview
     id="base"
     pagecolor="#000000"
     bordercolor="#7f7f7f"
     borderopacity="1"
     inkscape:pageopacity="1"
     inkscape:pageshadow="2"
     inkscape:zoom="17.9375"
     inkscape:cx="16"
     inkscape:cy="16"
     inkscape:document-units="px"
     inkscape:current-layer="layer1"
     showgrid="false"
     inkscape:window-width="1329"
     inkscape:window-height="748"
     inkscape:window-x="35"
     inkscape:window-y="-3"
     inkscape:window-maximized="1"
     showborder="true"
     borderlayer="true">
    <inkscape:grid
       type="xygrid"
       id="grid2984"
       empspacing="5"
       visible="true"
       enabled="true"
       snapvisiblegridlinesonly="true" />
  </sodipodi:namedview>
  <metadata
     id="metadata7">
    <rdf:RDF>
      <cc:Work
         rdf:about="">
        <dc:format>image/svg+xml</dc:format>
        <dc:type
           rdf:resource="http://purl.org/dc/dcmitype/StillImage" />
        <dc:title />
      </cc:Work>
    </rdf:RDF>
  </metadata>
  <g
     inkscape:label="Capa 1"
     inkscape:groupmode="layer"
     id="layer1"
     transform="translate(0,-1020.3622)">
    <path
       style="fill:#ffffff;fill-opacity:1"
       d="m 4,1043.6956 0,-4.6667 1.653343,1.6533 1.653343,1.6534 1.737114,-1.6319 c 1.623964,-1.5257 1.818848,-1.5503 2.991913,-0.3772 1.173066,1.1731 1.1485,1.368 -0.377134,2.992 l -1.631933,1.737 1.653342,1.6534 1.653343,1.6533 -4.666665,0 -4.666666,0 0,-4.6666 z"
       id="path2989"
       inkscape:connector-curvature="0" />
    <path
       style="fill:#ffffff;fill-opacity:1"
       d="m 19.731751,1032.2152 c -0.787453,-0.9488 -0.676043,-1.4406 0.644843,-2.8466 l 1.596757,-1.6997 -1.653343,-1.6534 -1.653343,-1.6533 4.666663,0 4.666672,0 0,4.6307 0,4.6307 -1.748225,-1.6423 -1.748229,-1.6424 -1.368015,1.5117 c -1.640936,1.8132 -2.155805,1.8684 -3.40378,0.3646 z"
       id="path3098"
       inkscape:connector-curvature="0" />
  </g>
</svg>
