<?xml version="1.0" encoding="UTF-8" standalone="no"?>
<!-- Created with Inkscape (http://www.inkscape.org/) -->

<svg
   xmlns:dc="http://purl.org/dc/elements/1.1/"
   xmlns:cc="http://creativecommons.org/ns#"
   xmlns:rdf="http://www.w3.org/1999/02/22-rdf-syntax-ns#"
   xmlns:svg="http://www.w3.org/2000/svg"
   xmlns="http://www.w3.org/2000/svg"
   xmlns:sodipodi="http://sodipodi.sourceforge.net/DTD/sodipodi-0.dtd"
   xmlns:inkscape="http://www.inkscape.org/namespaces/inkscape"
   width="128"
   height="128"
   id="svg2"
   version="1.1"
   inkscape:version="0.48.0 r9654"
   sodipodi:docname="micoff.svg">
  <defs
     id="defs4" />
  <sodipodi:namedview
     id="base"
     pagecolor="#000000"
     bordercolor="#666666"
     borderopacity="1.0"
     inkscape:pageopacity="1"
     inkscape:pageshadow="2"
     inkscape:zoom="4.1171875"
     inkscape:cx="108.32638"
     inkscape:cy="64"
     inkscape:document-units="px"
     inkscape:current-layer="layer1"
     showgrid="false"
     inkscape:window-width="1366"
     inkscape:window-height="721"
     inkscape:window-x="-2"
     inkscape:window-y="-3"
     inkscape:window-maximized="1" />
  <metadata
     id="metadata7">
    <rdf:RDF>
      <cc:Work
         rdf:about="">
        <dc:format>image/svg+xml</dc:format>
        <dc:type
           rdf:resource="http://purl.org/dc/dcmitype/StillImage" />
        <dc:title></dc:title>
      </cc:Work>
    </rdf:RDF>
  </metadata>
  <g
     inkscape:label="Capa 1"
     inkscape:groupmode="layer"
     id="layer1"
     transform="translate(0,-924.36218)">
    <path
       style="fill:#ffffff;fill-opacity:1;fill-rule:evenodd;stroke:#000000;stroke-width:0.71455997px;stroke-linecap:butt;stroke-linejoin:miter;stroke-opacity:1"
       d="m 39.999999,945.71942 c -8.643756,0 -15.642719,6.62451 -15.642719,14.80577 0,8.18129 6.998963,14.80577 15.642719,14.80577 8.643756,0 15.642719,-6.62448 15.642719,-14.80577 0,-8.18126 -6.998963,-14.80577 -15.642719,-14.80577 z m -7.664932,34.08288 0,56.2026 15.329864,0 0,-56.2026 -15.329864,0 z"
       id="path2985"
       inkscape:connector-curvature="0" />
    <g
       transform="matrix(1.411091,1.4110909,-1.411091,1.4110909,-118.2383,-1000.2428)"
       style="font-size:40px;font-style:normal;font-weight:normal;line-height:125%;letter-spacing:0px;word-spacing:0px;fill:#ffffff;fill-opacity:1;stroke:#ffffff;stroke-width:4;stroke-miterlimit:4;stroke-opacity:1;font-family:Sans"
       id="text3791">
      <path
         d="m 784.13568,629.47015 0,10.87891 10.87891,0 0,3.32031 -10.87891,0 0,10.87891 -3.28125,0 0,-10.87891 -10.87891,0 0,-3.32031 10.87891,0 0,-10.87891 3.28125,0"
         id="path3805"
         inkscape:connector-curvature="0" />
    </g>
  </g>
</svg>
