<?xml version="1.0" encoding="UTF-8" standalone="no"?>
<!-- Created with Inkscape (http://www.inkscape.org/) -->

<svg
   xmlns:dc="http://purl.org/dc/elements/1.1/"
   xmlns:cc="http://creativecommons.org/ns#"
   xmlns:rdf="http://www.w3.org/1999/02/22-rdf-syntax-ns#"
   xmlns:svg="http://www.w3.org/2000/svg"
   xmlns="http://www.w3.org/2000/svg"
   xmlns:sodipodi="http://sodipodi.sourceforge.net/DTD/sodipodi-0.dtd"
   xmlns:inkscape="http://www.inkscape.org/namespaces/inkscape"
   width="32"
   height="32"
   id="svg2"
   version="1.1"
   inkscape:version="0.48.2 r9819"
   sodipodi:docname="scalerotate.svg">
  <defs
     id="defs4" />
  <sodipodi:namedview
     id="base"
     pagecolor="#000000"
     bordercolor="#666666"
     borderopacity="1.0"
     inkscape:pageopacity="1"
     inkscape:pageshadow="2"
     inkscape:zoom="17.9375"
     inkscape:cx="17.559448"
     inkscape:cy="16"
     inkscape:document-units="px"
     inkscape:current-layer="layer1"
     showgrid="false"
     inkscape:window-width="1329"
     inkscape:window-height="748"
     inkscape:window-x="35"
     inkscape:window-y="-3"
     inkscape:window-maximized="1" />
  <metadata
     id="metadata7">
    <rdf:RDF>
      <cc:Work
         rdf:about="">
        <dc:format>image/svg+xml</dc:format>
        <dc:type
           rdf:resource="http://purl.org/dc/dcmitype/StillImage" />
        <dc:title />
      </cc:Work>
    </rdf:RDF>
  </metadata>
  <g
     inkscape:label="Capa 1"
     inkscape:groupmode="layer"
     id="layer1"
     transform="translate(0,-1020.3622)">
    <path
       style="fill:#ffffff;fill-opacity:1;stroke:none"
       d="m 10.607803,1050.9207 c -2.8077566,-0.8983 -4.1836996,-1.6246 -6.401803,-3.9391 l 4.2073417,-3.8372 1.2472432,0.8393 c 4.2240291,2.8427 9.5035391,1.4664 11.6044421,-3.0247 1.459706,-3.1206 0.466975,-7.218 -2.232816,-9.2159 -1.319224,-0.9763 -1.732952,-1.1807 -3.006967,-1.4865 l -0.779244,-0.187 c -0.04671,1.2611 0.04671,2.5222 0,3.7833 -3.116921,-2.0755 -6.4536589,-4.0838 -9.4816624,-6.2663 3.2268774,-2.2919 5.9218974,-3.899 9.4816624,-6.2245 0.04776,0.926 -0.04776,1.8522 0,2.7782 0.57338,0.1295 1.149618,0.2591 1.722999,0.3885 2.691112,0.6079 4.694265,1.7093 6.648668,3.6558 2.096731,2.0884 3.116194,3.8335 3.785597,6.4807 0.856845,3.3884 0.297226,7.0342 -1.568359,10.2176 -1.522731,2.5983 -4.949295,5.1611 -8.163838,6.1059 -1.786375,0.525 -5.31643,0.491 -7.063267,-0.069 z"
       id="path4020"
       inkscape:connector-curvature="0"
       sodipodi:nodetypes="ccccccccccccccssccc" />
    <path
       sodipodi:type="arc"
       style="fill:#ffffff;fill-opacity:1;stroke:none"
       id="path2989"
       sodipodi:cx="8.1393728"
       sodipodi:cy="18.731707"
       sodipodi:rx="3.010453"
       sodipodi:ry="4.1811848"
       d="m 10.763825,16.683353 c 0.814518,2.013119 0.299807,4.562152 -1.1496379,5.693426 -1.449445,1.131275 -3.2847492,0.416399 -4.0992666,-1.596719 -0.8145174,-2.013118 -0.2998069,-4.562152 1.1496381,-5.693426 1.3492863,-1.053102 3.053655,-0.513619 3.9411604,1.247493"
       transform="matrix(0.66423379,0,0,0.47826736,9.2945535,1029.1944)"
       sodipodi:start="5.7712128"
       sodipodi:end="11.955695"
       sodipodi:open="true" />
  </g>
</svg>
