<?xml version="1.0" encoding="UTF-8" standalone="no"?>
<!-- Created with Inkscape (http://www.inkscape.org/) -->

<svg
   xmlns:dc="http://purl.org/dc/elements/1.1/"
   xmlns:cc="http://creativecommons.org/ns#"
   xmlns:rdf="http://www.w3.org/1999/02/22-rdf-syntax-ns#"
   xmlns:svg="http://www.w3.org/2000/svg"
   xmlns="http://www.w3.org/2000/svg"
   xmlns:sodipodi="http://sodipodi.sourceforge.net/DTD/sodipodi-0.dtd"
   xmlns:inkscape="http://www.inkscape.org/namespaces/inkscape"
   width="128"
   height="128"
   id="svg2"
   version="1.1"
   inkscape:version="0.48.2 r9819"
   sodipodi:docname="spaces.svg">
  <defs
     id="defs4" />
  <sodipodi:namedview
     id="base"
     pagecolor="#000000"
     bordercolor="#666666"
     borderopacity="1.0"
     inkscape:pageopacity="1"
     inkscape:pageshadow="2"
     inkscape:zoom="4.484375"
     inkscape:cx="60.881104"
     inkscape:cy="64"
     inkscape:document-units="px"
     inkscape:current-layer="layer1"
     showgrid="false"
     inkscape:window-width="1329"
     inkscape:window-height="748"
     inkscape:window-x="35"
     inkscape:window-y="-3"
     inkscape:window-maximized="1" />
  <metadata
     id="metadata7">
    <rdf:RDF>
      <cc:Work
         rdf:about="">
        <dc:format>image/svg+xml</dc:format>
        <dc:type
           rdf:resource="http://purl.org/dc/dcmitype/StillImage" />
        <dc:title />
      </cc:Work>
    </rdf:RDF>
  </metadata>
  <g
     inkscape:label="Capa 1"
     inkscape:groupmode="layer"
     id="layer1"
     transform="translate(0,-924.36218)">
    <path
       style="font-size:medium;font-style:normal;font-variant:normal;font-weight:normal;font-stretch:normal;text-indent:0;text-align:start;text-decoration:none;line-height:normal;letter-spacing:normal;word-spacing:normal;text-transform:none;direction:ltr;block-progression:tb;writing-mode:lr-tb;text-anchor:start;baseline-shift:baseline;color:#000000;fill:#ffffff;fill-opacity:1;stroke:none;stroke-width:12;marker:none;visibility:visible;display:inline;overflow:visible;enable-background:accumulate;font-family:Sans;-inkscape-font-specification:Sans"
       d="m 25.558374,928.36216 c -3.122802,3.3e-4 -5.963964,3.03138 -5.964276,6.36288 l 0,39.1715 -9.629822,0 C 6.841474,973.89688 4.0003122,976.92792 4,980.25943 l 0,61.73987 c 3.122e-4,3.3315 2.841474,6.3626 5.964276,6.3629 l 82.008802,0 c 3.122803,-3e-4 5.963972,-3.0314 5.964272,-6.3629 l 0,-15.8741 20.09837,0 c 3.12281,-3e-4 5.96397,-3.0313 5.96428,-6.3629 l 0,-59.91712 c -3.1e-4,-3.33151 -2.84147,-6.36255 -5.96428,-6.36289 l -8.01449,0 0,-18.75725 c -3.1e-4,-3.3315 -2.84147,-6.36255 -5.96428,-6.36288 z m 5.964277,12.72577 66.570019,0 0,12.39436 c -20.018379,0 -28.205624,0 -48.180167,0 -2.921107,0.31016 -5.3882,3.23119 -5.374061,6.36289 l 0,14.05136 -13.015791,0 z m 66.414699,39.1715 c -3e-4,-3.33151 -2.841469,-6.36255 -5.964272,-6.36289 l -35.506083,0 0,-7.68848 c 22.511001,0 33.093451,0 55.604455,0 l 0,47.19144 -14.1341,0 m -11.928549,22.2369 -70.080248,0 0,-49.01409 c 23.360083,0 46.720166,0 70.080248,0"
       id="rect3787"
       inkscape:connector-curvature="0"
       sodipodi:nodetypes="ccccccccccccccccccccccccccccccccccccc" />
  </g>
</svg>
