<?xml version="1.0" encoding="UTF-8" standalone="no"?>
<svg
   xmlns:dc="http://purl.org/dc/elements/1.1/"
   xmlns:cc="http://creativecommons.org/ns#"
   xmlns:rdf="http://www.w3.org/1999/02/22-rdf-syntax-ns#"
   xmlns:svg="http://www.w3.org/2000/svg"
   xmlns="http://www.w3.org/2000/svg"
   xmlns:sodipodi="http://sodipodi.sourceforge.net/DTD/sodipodi-0.dtd"
   xmlns:inkscape="http://www.inkscape.org/namespaces/inkscape"
   height="128"
   width="128"
   version="1.1"
   id="svg2"
   sodipodi:docname="configure.svg"
   inkscape:version="0.92.0 r"
   inkscape:export-xdpi="6"
   inkscape:export-ydpi="6">
  <sodipodi:namedview
     pagecolor="#ffffff"
     bordercolor="#666666"
     borderopacity="1"
     objecttolerance="10"
     gridtolerance="10"
     guidetolerance="10"
     inkscape:pageopacity="0"
     inkscape:pageshadow="2"
     inkscape:window-width="1336"
     inkscape:window-height="739"
     id="namedview6"
     showgrid="false"
     inkscape:zoom="4.265625"
     inkscape:cx="64"
     inkscape:cy="64"
     inkscape:window-x="30"
     inkscape:window-y="0"
     inkscape:window-maximized="1"
     inkscape:current-layer="svg2" />
  <metadata
     id="metadata8">
    <rdf:RDF>
      <cc:Work
         rdf:about="">
        <dc:format>image/svg+xml</dc:format>
        <dc:type
           rdf:resource="http://purl.org/dc/dcmitype/StillImage" />
        <dc:title></dc:title>
      </cc:Work>
    </rdf:RDF>
  </metadata>
  <defs
     id="defs6" />
  <rect
     style="fill:#7f3fff;fill-opacity:1;stroke:none;stroke-width:1;stroke-linecap:butt;stroke-linejoin:miter;stroke-miterlimit:4;stroke-dasharray:none;stroke-opacity:1"
     id="rect3678"
     width="128"
     height="128"
     x="0"
     y="0"
     rx="4"
     ry="4" />
  <path
     style="fill:#ffffff;fill-opacity:1"
     d="m 55.763656,111.05214 c -0.322194,-0.52133 -0.952432,-3.39515 -1.400529,-6.38628 -0.77125,-5.148256 -0.965571,-5.519236 -3.641883,-6.953006 -3.220477,-1.72528 -3.86537,-1.533 -10.205352,3.042866 -3.503225,2.52844 -3.87557,2.63195 -5.83082,1.62084 -3.093402,-1.59965 -9.394719,-8.646096 -9.394719,-10.505646 0,-0.88812 1.393548,-3.46051 3.096773,-5.71641 3.483808,-4.61427 3.724616,-6.01861 1.623019,-9.46508 -1.312449,-2.15232 -1.984777,-2.46583 -6.346281,-2.95927 -7.710475,-0.87235 -7.66383,-0.81312 -7.66383,-9.730139 0,-8.897271 -0.08038,-8.794645 7.57182,-9.667425 5.471356,-0.624042 6.860062,-1.612917 7.56854,-5.389431 0.423012,-2.254846 0.04961,-3.205287 -2.679264,-6.819653 -1.743927,-2.309815 -3.170777,-4.874844 -3.170777,-5.700065 0,-1.920155 9.248677,-11.133087 11.176282,-11.133087 0.801463,0 3.347055,1.42685 5.65687,3.170777 3.614365,2.728873 4.564807,3.102276 6.819653,2.679264 3.776514,-0.708478 4.765389,-2.097184 5.389431,-7.568539 0.872781,-7.6522 0.770154,-7.57182 9.667425,-7.57182 8.917016,0 8.857794,-0.04665 9.730135,7.66383 0.493448,4.361504 0.806955,5.033832 2.959276,6.34628 3.446467,2.101597 4.850805,1.860789 9.465077,-1.623019 2.255905,-1.703225 4.828293,-3.096773 5.716417,-3.096773 1.85954,0 8.905991,6.301317 10.505641,9.394719 1.01111,1.95525 0.9076,2.327595 -1.62084,5.83082 -4.575869,6.339982 -4.768148,6.984875 -3.042866,10.205352 1.433767,2.676312 1.804753,2.870632 6.953006,3.641883 2.99114,0.448097 5.86496,1.078335 6.38628,1.400529 0.64446,0.3983 0.94785,3.04053 0.94785,8.254809 0,8.896138 0.0447,8.839568 -7.66383,9.711688 -4.3615,0.49344 -5.033825,0.80695 -6.346276,2.95927 -2.107517,3.45618 -1.88273,4.55713 2.010115,9.84519 1.916131,2.60288 3.483871,5.10263 3.483871,5.55501 0,1.07268 -10.321569,11.394246 -11.394252,11.394246 -0.452377,0 -2.95213,-1.56774 -5.555007,-3.48387 -5.288058,-3.892846 -6.389013,-4.117626 -9.845186,-2.010116 -2.152321,1.31245 -2.465828,1.98478 -2.959276,6.346276 -0.872115,7.70848 -0.815541,7.66383 -9.711684,7.66383 -5.214278,0 -7.856509,-0.30339 -8.254809,-0.94785 z M 70.411974,78.414904 c 3.036066,-1.30274 7.135788,-5.50934 8.250227,-8.46529 1.312522,-3.481354 0.984686,-9.562726 -0.69276,-12.850794 -3.059917,-5.997932 -8.966065,-9.115845 -15.746609,-8.31279 -15.387961,1.822477 -18.699543,22.100664 -4.80346,29.413584 2.891906,1.52188 9.685223,1.63445 12.992602,0.21529 z"
     id="path2989" />
</svg>
