<?xml version="1.0" encoding="UTF-8"?>
<svg version="1.1" viewBox="0 0 128 128" xmlns="http://www.w3.org/2000/svg" xmlns:cc="http://creativecommons.org/ns#" xmlns:dc="http://purl.org/dc/elements/1.1/" xmlns:rdf="http://www.w3.org/1999/02/22-rdf-syntax-ns#">
<metadata>
<rdf:RDF>
<cc:Work rdf:about="">
<dc:format>image/svg+xml</dc:format>
<dc:type rdf:resource="http://purl.org/dc/dcmitype/StillImage"/>
<dc:title/>
</cc:Work>
</rdf:RDF>
</metadata>
<g fill="#7f7f7f">
<path d="m47.931 109.29c-15.304-6.7653-23.87-15.436-29.075-29.429-10.423-28.019 8.8261-59.222 39.127-63.427 22.441-3.114 44.143 10.625 51.912 32.863 2.5387 7.2666 2.8278 20.277 0.6123 27.559-4.2402 13.937-13.509 24.536-27.119 31.01-8.0728 3.8402-8.2855 3.8868-18.601 4.0734-10.003 0.18118-10.7 0.0671-16.857-2.6502zm4.5773-3.3236c-0.72396-1.143 4.7455-6.4206 5.92-5.7124 0.46284 0.27897 1.5726 0.13997 2.4662-0.30965 0.89366-0.44961 3.156-1.5497 5.0274-2.4449 1.8714-0.89539 3.4026-1.9306 3.4026-2.3012 0-0.37005 1.5829-0.92032 3.5177-1.2225 3.2364-0.50522 8.278-3.8934 8.278-5.5635 0-0.38922 0.99559-1.1501 2.2124-1.6911 1.2168-0.54069 2.6527-1.7864 3.1908-2.7675 0.83691-1.5259 0.38586-2.3873-3.1198-5.9573-2.254-2.2954-4.1039-4.9988-4.1109-6.0074-0.0072-1.0085-1.6403-3.5946-3.6294-5.7468-1.9892-2.1523-3.6166-4.4558-3.6166-5.1189 0-0.66339-0.71458-1.4517-1.5879-1.7525-0.87334-0.30102-2.5167-1.363-3.6518-2.3605-1.361-1.196-3.2114-1.782-5.4333-1.7205-5.1538 0.14284-6.548-0.94141-5.9371-4.6144 0.41472-2.494 0.2227-3.0976-0.98553-3.0976-1.3768 0-1.3825-0.17639-0.06941-2.1315 1.5607-2.3243 0.24085-4.2404-1.65-2.3954-3.1656 3.089-5.1496-1.4668-2.1304-4.8919 1.8677-2.1188 2.2362-2.2002 5.7619-1.2739 2.6432 0.69503 3.8523 1.5228 4.0541 2.7773 0.37723 2.3458 2.0202 2.3006 2.3986-0.06711 0.16297-1.0194 1.2858-2.2206 2.4952-2.6693 1.2094-0.44865 2.1989-1.1932 2.1989-1.6545 0-1.2004 5.7893-2.9017 7.5856-2.2291 0.83106 0.31156 2.082 0.10354 2.7798-0.46208 0.86864-0.70366 1.4541-0.73434 1.8567-0.09874 0.32345 0.51097 1.0222 0.92798 1.5529 0.92798 0.5959 0 0.51969-0.52343-0.19892-1.3683-0.6401-0.75255-1.7477-1.1498-2.4614-0.88293-0.71362 0.26747-1.7711 0.19461-2.3499-0.16201-0.63569-0.39209-0.02876-0.83116 1.5329-1.1097l2.5852-0.46112-3.4925-3.5073c-1.9209-1.9291-2.9822-3.2005-2.3584-2.8255 0.6238 0.37484 1.1342 0.35566 1.1342-0.03835 0-0.3988-0.87583-1.2583-1.9463-1.9107-1.7166-1.0461-1.8785-1.0136-1.3714 0.27609 0.32029 0.81486 0.19787 1.2344-0.27657 0.94812-0.4683-0.2828-1.2891 0.28472-1.8239 1.2596-0.96712 1.7634-0.98478 1.7627-3.2069-0.12271-2.7023-2.2927-1.754-3.9661 2.5681-4.5317 2.2894-0.2991 2.0426-0.40072-1.2018-0.49084-11.801-0.32978-16.885 0.10641-21.69 1.8617-2.7925 1.0198-4.5896 2.0131-3.9934 2.2073 0.59614 0.19461 1.8963-0.06711 2.8893-0.58958 3.7074-1.9361 4.0751-0.76693 0.67941 2.1591-2.7444 2.3653-3.7694 4.1016-4.6818 7.9317-0.64247 2.697-0.82505 4.9036-0.40572 4.9036s0.97138-0.89635 1.2268-1.9922c0.25541-1.0957 0.32838-0.04793 0.16215 2.321-0.28858 4.1183-0.11414 4.489 3.8625 8.207 2.2906 2.1417 5.0456 5.5796 6.1223 7.6398 1.1899 2.2767 2.5424 3.6976 3.4488 3.6229 2.5772-0.21282 1.6414 2.7003-2.1383 6.6555-4.1231 4.3146-4.0449 4.034-2.4042 8.6292 0.67385 1.8873 1.0623 3.888 0.86323 4.4461-0.19908 0.55794 0.4283 2.2826 1.3942 3.8323l1.7561 2.8178-2.5799 7.119c-3.6326 10.024-4.2142 14.425-2.067 15.643 2.1329 1.2097 2.3739 1.2202 1.6466 0.0671zm6.1547-86.446c0.87334-0.22241 2.3024-0.22241 3.1758 0 0.87334 0.22241 0.15875 0.40456-1.5879 0.40456-1.7467 0-2.4612-0.18214-1.5879-0.40456zm48.866 54.676c0.54873-3.621 1.2036-7.1072 1.4552-7.7472 1.0938-2.7814-1.6854-0.83595-3.3475 2.3426-1.9251 3.6822-2.5766 12.431-0.92578 12.431 0.49898 0 0.96295 0.89635 1.0309 1.9921 0.11159 1.7984 0.15598 1.7769 0.45652-0.22145 0.1831-1.2174 0.78188-5.1761 1.3306-8.797zm-39.566-23.963c-0.3084-0.487-1.1732-0.8858-1.9218-0.8858-0.74862 0-1.1087 0.3988-0.80029 0.8858 0.3084 0.487 1.1732 0.88484 1.9218 0.88484 0.74852 0 1.1087-0.3988 0.80029-0.88484zm-5.8695-5.4681c-1.1242-0.88868-2.7134-1.5991-3.5314-1.5797-0.98633 0.01917-0.68304 0.46208 0.90028 1.3014 1.3132 0.69599 2.6878 1.9752 3.0546 2.8421 0.52726 1.2461 0.76674 1.3117 1.1437 0.31348 0.26229-0.69407-0.443-1.9892-1.5672-2.8775zm23.073-18.38c0.62361-0.98464-4.3565-4.8557-7.9727-6.1973-2.3572-0.8743-2.2506-0.64039 1.3651 2.9931 3.9186 3.9384 5.62 4.7634 6.6076 3.2041zm-15.842-5.3701c0-0.487-0.43245-0.8858-0.96091-0.8858-0.52851 0-0.70854 0.3988-0.40014 0.8858s0.74085 0.8858 0.96091 0.8858c0.22011 0 0.40014-0.3988 0.40014-0.8858z" fill="#7f7f7f"/>
</g>
</svg>
