<?xml version="1.0" encoding="UTF-8"?>
<svg version="1.1" viewBox="0 0 128 128" xmlns="http://www.w3.org/2000/svg" xmlns:cc="http://creativecommons.org/ns#" xmlns:dc="http://purl.org/dc/elements/1.1/" xmlns:rdf="http://www.w3.org/1999/02/22-rdf-syntax-ns#">
<metadata>
<rdf:RDF>
<cc:Work rdf:about="">
<dc:format>image/svg+xml</dc:format>
<dc:type rdf:resource="http://purl.org/dc/dcmitype/StillImage"/>
<dc:title/>
</cc:Work>
</rdf:RDF>
</metadata>
<path d="m46.743 110.54c-8.9848-2.8745-13.388-5.1987-20.486-12.605l13.463-12.279 3.9912 2.6857c13.517 9.0967 30.411 4.6925 37.134-9.679 4.6711-9.9859 1.4943-23.098-7.145-29.491-4.2215-3.1242-5.5454-3.7782-9.6223-4.7568l-2.4936-0.5984c-0.14947 4.0355 0.14947 8.071 0 12.107-9.9742-6.6416-20.652-13.068-30.341-20.052 10.326-7.3341 18.95-12.477 30.341-19.918 0.15283 2.9632-0.15283 5.927 0 8.8902 1.8348 0.4144 3.6788 0.82912 5.5136 1.2432 8.6116 1.9453 15.022 5.4698 21.276 11.699 6.7095 6.6829 9.9718 12.267 12.114 20.738 2.7419 10.843 0.95112 22.509-5.0188 32.696-4.8727 8.3145-15.838 16.516-26.124 19.539-5.7164 1.68-17.013 1.5712-22.602-0.2208z" fill="#7f7f7f"/>
</svg>
