<?xml version="1.0" encoding="UTF-8"?>
<svg version="1.1" viewBox="0 0 128 128" xmlns="http://www.w3.org/2000/svg" xmlns:cc="http://creativecommons.org/ns#" xmlns:dc="http://purl.org/dc/elements/1.1/" xmlns:rdf="http://www.w3.org/1999/02/22-rdf-syntax-ns#">
<metadata>
<rdf:RDF>
<cc:Work rdf:about="">
<dc:format>image/svg+xml</dc:format>
<dc:type rdf:resource="http://purl.org/dc/dcmitype/StillImage"/>
<dc:title/>
</cc:Work>
</rdf:RDF>
</metadata>
<g transform="matrix(.85309 -.85309 .85309 .85309 -829.5 -720.31)" fill="#7f7f7f">
<path d="m64.448 940.37a32 32 0 0 0-18.144 5.3359 32 32 0 0 0-9.3932 43.695 32 32 0 0 0 43.45 10.467 32 32 0 0 0 11.536-43.178l-1.681-2.6718a32 32 0 0 0-25.768-13.648zm-0.14974 10.667a21.333 21.333 0 0 1 17.18 9.0976l1.1198 1.7812a21.333 21.333 0 0 1-7.6914 28.786 21.333 21.333 0 0 1-28.966-6.9791 21.333 21.333 0 0 1 6.2617-29.129 21.333 21.333 0 0 1 12.096-3.5573z"/>
<rect x="58.6" y="996.36" width="10.8" height="40" rx="4" ry="3.3333"/>
</g>
</svg>
