<?xml version="1.0" encoding="UTF-8"?>
<svg version="1.1" viewBox="0 0 128 128" xmlns="http://www.w3.org/2000/svg" xmlns:cc="http://creativecommons.org/ns#" xmlns:dc="http://purl.org/dc/elements/1.1/" xmlns:rdf="http://www.w3.org/1999/02/22-rdf-syntax-ns#">
<metadata>
<rdf:RDF>
<cc:Work rdf:about="">
<dc:format>image/svg+xml</dc:format>
<dc:type rdf:resource="http://purl.org/dc/dcmitype/StillImage"/>
<dc:title/>
</cc:Work>
</rdf:RDF>
</metadata>
<path d="m55.764 111.05c-0.32219-0.52133-0.95243-3.3952-1.4005-6.3863-0.77125-5.1483-0.96557-5.5192-3.6419-6.953-3.2205-1.7253-3.8654-1.533-10.205 3.0429-3.5032 2.5284-3.8756 2.632-5.8308 1.6208-3.0934-1.5996-9.3947-8.6461-9.3947-10.506 0-0.88812 1.3935-3.4605 3.0968-5.7164 3.4838-4.6143 3.7246-6.0186 1.623-9.4651-1.3124-2.1523-1.9848-2.4658-6.3463-2.9593-7.7105-0.87235-7.6638-0.81312-7.6638-9.7301 0-8.8973-0.08038-8.7946 7.5718-9.6674 5.4714-0.62404 6.8601-1.6129 7.5685-5.3894 0.42301-2.2548 0.04961-3.2053-2.6793-6.8197-1.7439-2.3098-3.1708-4.8748-3.1708-5.7001 0-1.9202 9.2487-11.133 11.176-11.133 0.80146 0 3.3471 1.4268 5.6569 3.1708 3.6144 2.7289 4.5648 3.1023 6.8197 2.6793 3.7765-0.70848 4.7654-2.0972 5.3894-7.5685 0.87278-7.6522 0.77015-7.5718 9.6674-7.5718 8.917 0 8.8578-0.04665 9.7301 7.6638 0.49345 4.3615 0.80696 5.0338 2.9593 6.3463 3.4465 2.1016 4.8508 1.8608 9.4651-1.623 2.2559-1.7032 4.8283-3.0968 5.7164-3.0968 1.8595 0 8.906 6.3013 10.506 9.3947 1.0111 1.9552 0.9076 2.3276-1.6208 5.8308-4.5759 6.34-4.7681 6.9849-3.0429 10.205 1.4338 2.6763 1.8048 2.8706 6.953 3.6419 2.9911 0.4481 5.865 1.0783 6.3863 1.4005 0.64446 0.3983 0.94785 3.0405 0.94785 8.2548 0 8.8961 0.0447 8.8396-7.6638 9.7117-4.3615 0.49344-5.0338 0.80695-6.3463 2.9593-2.1075 3.4562-1.8827 4.5571 2.0101 9.8452 1.9161 2.6029 3.4839 5.1026 3.4839 5.555 0 1.0727-10.322 11.394-11.394 11.394-0.45238 0-2.9521-1.5677-5.555-3.4839-5.2881-3.8928-6.389-4.1176-9.8452-2.0101-2.1523 1.3124-2.4658 1.9848-2.9593 6.3463-0.87212 7.7085-0.81554 7.6638-9.7117 7.6638-5.2143 0-7.8565-0.30339-8.2548-0.94785zm14.648-32.637c3.0361-1.3027 7.1358-5.5093 8.2502-8.4653 1.3125-3.4814 0.98469-9.5627-0.69276-12.851-3.0599-5.9979-8.9661-9.1158-15.747-8.3128-15.388 1.8225-18.7 22.101-4.8035 29.414 2.8919 1.5219 9.6852 1.6344 12.993 0.21529z" fill="#7f7f7f"/>
</svg>
