<?xml version="1.0" encoding="UTF-8" standalone="no"?>
<svg
   xmlns:dc="http://purl.org/dc/elements/1.1/"
   xmlns:cc="http://creativecommons.org/ns#"
   xmlns:rdf="http://www.w3.org/1999/02/22-rdf-syntax-ns#"
   xmlns:svg="http://www.w3.org/2000/svg"
   xmlns="http://www.w3.org/2000/svg"
   height="128"
   width="128"
   id="svg51"
   version="1.1"
   viewBox="0 0 128 128">
  <metadata
     id="metadata55">
    <rdf:RDF>
      <cc:Work
         rdf:about="">
        <dc:format>image/svg+xml</dc:format>
        <dc:type
           rdf:resource="http://purl.org/dc/dcmitype/StillImage" />
        <dc:title></dc:title>
      </cc:Work>
    </rdf:RDF>
  </metadata>
  <defs
     id="0" />
  <rect
     ry="4"
     rx="4"
     y="0"
     x="0"
     height="128"
     width="128"
     id="rect4542"
     style="fill:#ff0000;fill-opacity:1;stroke:none;stroke-width:1.61451578;stroke-linecap:butt;stroke-linejoin:miter;stroke-miterlimit:4;stroke-dasharray:none;stroke-opacity:1" />
  <g
     style="fill:#ffffff;fill-opacity:1"
     transform="matrix(2.2570055,0,0,2.2539027,9.5848546,9.8457466)"
     id="H">
    <path
       d="m 13.59375,3.46875 c -0.251021,0.042019 -0.461481,0.2038927 -0.5625,0.4375 -0.101019,0.2336073 -0.07882,0.5070724 0.0625,0.71875 l 1.75,2.8125 c -1.158224,0.8401977 -2.247075,1.7945738 -3.1875,2.90625 -1.45442,1.719269 -2.5915865,3.751288 -3.4375,5.96875 C 7.201477,15.596331 8.2182299,16.3075 5.5625,14.4375 5.3991215,14.322602 5.1966643,14.277612 5,14.3125 c -0.3081128,0.04947 -0.5624644,0.288021 -0.625,0.59375 -0.062535,0.30573 0.079811,0.614765 0.34375,0.78125 1.7098084,1.203963 2.0531731,1.42771 3,2.09375 -0.6345827,2.09742 -1,4.347521 -1,6.6875 0,0.483296 0.00247,0.962413 0.03125,1.4375 -1.5214803,0.101626 -0.00179,0.0025 -3.1875,0.21875 -0.4142136,0.02589 -0.7446384,0.398286 -0.71875,0.8125 0.025888,0.414214 0.3982864,0.713388 0.8125,0.6875 1.8540087,-0.125848 2.0007515,-0.131968 3.25,-0.21875 0.4185462,3.32999 1.5281403,6.390665 3.1875,9 C 8.9088457,37.484628 10.08925,36.39885 7.375,38.875 7.0643398,39.151142 7.0363576,39.62684 7.3125,39.9375 7.5886424,40.24816 8.0643398,40.276142 8.375,40 c 1.4815981,-1.351642 1.6096536,-1.473722 2.59375,-2.375 0.232676,0.311431 0.438633,0.642598 0.6875,0.9375 3.093824,3.666109 7.482375,6.031261 12.40625,6.03125 4.923863,10e-7 9.312426,-2.36514 12.40625,-6.03125 0.259557,-0.307569 0.508071,-0.643221 0.75,-0.96875 1.18512,1.083249 0.01243,-0.0057 2.65625,2.40625 0.31066,0.276142 0.786358,0.24816 1.0625,-0.0625 0.276142,-0.31066 0.24816,-0.786358 -0.0625,-1.0625 -1.587842,-1.448567 -1.760664,-1.602276 -2.78125,-2.53125 1.643773,-2.604613 2.712646,-5.652145 3.125,-8.96875 1.527381,0.10638 0.0013,0.021 3.375,0.25 0.414214,0.02589 0.755362,-0.273286 0.78125,-0.6875 0.02589,-0.414214 -0.273286,-0.786612 -0.6875,-0.8125 -1.896025,-0.1287 -2.052914,-0.130839 -3.3125,-0.21875 0.02879,-0.475159 0.0625,-0.95413 0.0625,-1.4375 0,-2.315564 -0.346827,-4.546282 -0.96875,-6.625 0.95319,-0.669001 -0.01252,0.009 3.0625,-2.15625 0.306337,-0.190131 0.44244,-0.569935 0.3125,-0.90625 C 43.713812,14.444935 43.354594,14.247271 43,14.3125 c -0.112291,0.01746 -0.219147,0.0602 -0.3125,0.125 -1.556543,1.09604 -1.804242,1.286992 -2.71875,1.9375 -0.84754,-2.243648 -2.031104,-4.294869 -3.5,-6.03125 C 35.543412,9.2499074 34.511538,8.3002054 33.375,7.46875 L 35.15625,4.625 c 0.16048,-0.244298 0.154312,-0.5642599 0,-0.8125 C 35.001938,3.5642597 34.727594,3.4329619 34.4375,3.46875 34.218386,3.4993764 34.02397,3.6251749 33.90625,3.8125 L 32.125,6.625 C 29.736247,5.1854117 26.987228,4.3437437 24.0625,4.34375 c -2.900389,0 -5.594143,0.8325013 -7.96875,2.25 l -1.75,-2.78125 c -0.158873,-0.2541307 -0.453776,-0.3892944 -0.75,-0.34375 z"
       id="Z"
       style="fill:#ffffff;fill-opacity:1;fill-rule:evenodd" />
    <path
       d="m 12.46875,11.471082 c 1.20504,-1.389618 1.186036,-1.402378 0,0 z m 0,0 c -2.7213004,3.393323 -4.4062499,7.957207 -4.40625,13 0,10.446943 7.168,18.906249 16,18.90625 8.832,0 15.999998,-8.459307 16,-18.90625 0,-5.042792 -1.68495,-9.606677 -4.40625,-13 -3.200691,2.234156 -7.807468,4.59375 -11.59375,4.59375 -3.786283,0 -8.393059,-2.359594 -11.59375,-4.59375 z m 23.1875,0 c -1.201691,-1.389126 -1.189107,-1.40311 0,0 z"
       id="a"
       style="fill:#ffffff;fill-opacity:1" />
    <path
       d="m 24.0625,5.5335824 c -4.568749,0 -8.677446,2.3010166 -11.59375,5.9374996 3.200691,2.234156 7.807467,4.59375 11.59375,4.59375 3.786282,0 8.393059,-2.359594 11.59375,-4.59375 C 32.739946,7.8345989 28.631249,5.5335823 24.0625,5.5335824 Z"
       id="b"
       style="fill:#ffffff;fill-opacity:1" />
    <path
       d="m 23.0625,16.002332 v 27.3125 c 0.334547,0.02467 0.660214,0.0625 1,0.0625 0.339786,0 0.665453,-0.03783 1,-0.0625 v -27.3125 c -0.336306,0.03332 -0.674412,0.0625 -1,0.0625 -0.325588,0 -0.663694,-0.02918 -1,-0.0625 z"
       id="d"
       style="fill:#ffffff;fill-opacity:1" />
    <g
       id="g"
       style="fill:#ffffff;fill-opacity:1">
      <path
         d="m 17.857143,22.078341 a 2.6497695,2.5345621 0 1 1 -5.299539,0 2.6497695,2.5345621 0 1 1 5.299539,0 z"
         transform="matrix(1.4846065,0,0,1.4846065,-7.1932441,-10.353686)"
         id="i"
         style="fill:#ffffff;fill-opacity:1" />
      <path
         d="m 17.857143,22.078341 a 2.6497695,2.5345621 0 1 1 -5.299539,0 2.6497695,2.5345621 0 1 1 5.299539,0 z"
         transform="matrix(0.7118086,0,0,0.7118086,7.1851322,18.783479)"
         id="j"
         style="fill:#ffffff;fill-opacity:1" />
      <path
         d="m 17.857143,22.078341 a 2.6497695,2.5345621 0 1 1 -5.299539,0 2.6497695,2.5345621 0 1 1 5.299539,0 z"
         transform="matrix(0.6521739,0,0,0.6521739,20.612101,7.2143391)"
         id="k"
         style="fill:#ffffff;fill-opacity:1" />
      <path
         d="m 17.857143,22.078341 a 2.6497695,2.5345621 0 1 1 -5.299539,0 2.6497695,2.5345621 0 1 1 5.299539,0 z"
         transform="matrix(0.9637067,0,0,0.9637067,15.196089,11.9216)"
         id="l"
         style="fill:#ffffff;fill-opacity:1" />
      <path
         d="m 17.857143,22.078341 a 2.6497695,2.5345621 0 1 1 -5.299539,0 2.6497695,2.5345621 0 1 1 5.299539,0 z"
         transform="matrix(0.6521739,0,0,0.6521739,24.18353,12.513878)"
         id="m"
         style="fill:#ffffff;fill-opacity:1" />
    </g>
  </g>
</svg>
