<?xml version="1.0" encoding="UTF-8" standalone="no"?>
<svg
   xmlns:dc="http://purl.org/dc/elements/1.1/"
   xmlns:cc="http://creativecommons.org/ns#"
   xmlns:rdf="http://www.w3.org/1999/02/22-rdf-syntax-ns#"
   xmlns:svg="http://www.w3.org/2000/svg"
   xmlns="http://www.w3.org/2000/svg"
   version="1.1"
   id="svg2"
   height="128"
   width="128">
  <defs
     id="defs4">
    <filter
       id="filter4175"
       style="color-interpolation-filters:sRGB;">
      <feGaussianBlur
         id="feGaussianBlur4177"
         result="fbSourceGraphic"
         stdDeviation="2 2" />
      <feColorMatrix
         id="feColorMatrix4179"
         values="0 0 0 -1 0 0 0 0 -1 0 0 0 0 -1 0 0 0 0 1 0"
         in="fbSourceGraphic"
         result="fbSourceGraphicAlpha" />
      <feGaussianBlur
         in="fbSourceGraphic"
         result="blur"
         stdDeviation="2 2"
         id="feGaussianBlur4181" />
    </filter>
    <filter
       id="filter4208"
       style="color-interpolation-filters:sRGB;">
      <feGaussianBlur
         id="feGaussianBlur4210"
         result="blur"
         stdDeviation="2 2" />
    </filter>
  </defs>
  <metadata
     id="metadata7">
    <rdf:RDF>
      <cc:Work
         rdf:about="">
        <dc:format>image/svg+xml</dc:format>
        <dc:type
           rdf:resource="http://purl.org/dc/dcmitype/StillImage" />
        <dc:title></dc:title>
      </cc:Work>
    </rdf:RDF>
  </metadata>
  <g
     transform="translate(0,-924.36218)"
     id="layer1">
    <path
       id="path3763-7-5"
       d="m 62.876953,938.375 c -21.983109,0.0346 -41.739824,19.11562 -42.361328,41.12109 -1.006847,16.03218 7.87775,32.08851 21.914063,39.86721 -10.77388,6.4243 -22.417556,11.5002 -32.4882818,19.0156 18.7933738,-0.3715 37.3503638,-5.4532 56.0515038,-6.2799 17.374094,1.7969 34.62191,5.5167 52.08326,5.985 -10.03473,-7.4597 -21.7587,-12.4319 -32.425779,-18.7969 19.075239,-10.3226 27.359199,-35.90993 17.980469,-55.4453 C 96.658475,948.1473 80.03221,937.76507 62.876953,938.375 Z m 9.580078,22.41992 c -13.352422,5.01102 -18.359726,23.44624 -9.390625,34.51367 2.293865,3.37002 6.881889,6.38571 9.882813,7.51951 -14.663785,-3.86094 -20.734407,-23.9314 -10.544922,-35.2031 2.788927,-3.36158 6.583357,-5.88554 10.777344,-7.11523 l -0.72461,0.28515 z m 9.441407,9.14453 c 10.418339,-0.0764 15.212913,14.72103 6.916015,20.83789 -7.862995,7.2572 -21.872789,-1.03549 -19.144531,-11.43554 1.065294,-5.60997 6.527472,-9.8064 12.228516,-9.40235 z"
       style="fill:#000000;fill-opacity:1;stroke:none;filter:url(#filter4208)" />
    <path
       id="path3763-7"
       d="m 63.972973,940.36221 c -22.92728,0 -41.513514,18.50807 -41.513514,41.33894 0,22.83085 18.586234,41.33895 41.513514,41.33895 22.92728,0 41.513517,-18.5081 41.513517,-41.33895 0,-22.83087 -18.586237,-41.33894 -41.513517,-41.33894 z m 15.567568,17.22456 c 13.374246,0 24.216219,10.79638 24.216219,24.11438 0,13.31803 -10.841973,24.11445 -24.216219,24.11445 -13.374247,0 -24.216217,-10.79642 -24.216217,-24.11445 0,-13.318 10.84197,-24.11438 24.216217,-24.11438 z m 1.729729,3.44491 c -11.46364,0 -20.756756,9.25404 -20.756756,20.66947 0,11.41543 9.293116,20.66945 20.756756,20.66945 11.46364,0 20.75676,-9.25402 20.75676,-20.66945 0,-11.41543 -9.29312,-20.66947 -20.75676,-20.66947 z m 0,6.88982 c 7.642427,0 13.837838,6.16936 13.837838,13.77965 0,7.61026 -6.195411,13.77963 -13.837838,13.77963 -7.642427,0 -13.837838,-6.16937 -13.837838,-13.77963 0,-7.61029 6.195411,-13.77965 13.837838,-13.77965 z m 3.783784,53.3423 c -6.289316,3.3308 -13.460785,5.2212 -21.081081,5.2212 -7.568889,0 -14.687173,-1.8784 -20.945946,-5.1673 L 16,1036.3622 l 48,-6.5399 48,6.2708 -26.945946,-14.8293 z"
       style="fill:#7f7f7f;fill-opacity:1;stroke:none" />
    <path
       id="path3763-7-4"
       d="m 62.962891,944.375 c -22.350257,-0.22321 -41.075218,23.08397 -35.824219,44.89844 3.935763,21.18026 28.518941,35.54446 48.943359,27.81636 5.269702,-1.6213 12.397925,-6.3814 14.667969,-9.539 -13.742297,6.0429 -31.49141,-0.5566 -37.197266,-14.64064 -6.653642,-14.86964 2.178217,-34.41292 18.267578,-38.29297 6.425208,-1.7935 13.465963,-1.19237 19.533204,1.55859 C 84.103423,948.50844 73.548662,943.96043 62.962891,944.375 Z M 36.5,1029.5293 c 2.317698,-0.8758 14.000672,-0.7415 9.916016,-2.293 -3.775681,-2.9251 -6.249781,0.6179 -9.916016,2.293 z m 48.146484,-3.5977 c -1.285469,0.9332 -7.065747,2.0874 -2.829341,2.1868 3.331729,0.2067 13.615966,2.6156 6.259029,-0.6418 -1.11512,-0.4202 -2.292464,-1.4426 -3.429688,-1.545 z"
       style="fill:#ffffff;fill-opacity:1;stroke:none;filter:url(#filter4175)" />
  </g>
</svg>
