<?xml version="1.0" encoding="UTF-8" standalone="no"?>
<!-- Created with Inkscape (http://www.inkscape.org/) -->

<svg
   xmlns:dc="http://purl.org/dc/elements/1.1/"
   xmlns:cc="http://creativecommons.org/ns#"
   xmlns:rdf="http://www.w3.org/1999/02/22-rdf-syntax-ns#"
   xmlns:svg="http://www.w3.org/2000/svg"
   xmlns="http://www.w3.org/2000/svg"
   xmlns:sodipodi="http://sodipodi.sourceforge.net/DTD/sodipodi-0.dtd"
   xmlns:inkscape="http://www.inkscape.org/namespaces/inkscape"
   id="svg2"
   version="1.1"
   inkscape:version="0.48.2 r9819"
   width="16"
   height="16"
   sodipodi:docname="web.png">
  <metadata
     id="metadata8">
    <rdf:RDF>
      <cc:Work
         rdf:about="">
        <dc:format>image/svg+xml</dc:format>
        <dc:type
           rdf:resource="http://purl.org/dc/dcmitype/StillImage" />
        <dc:title></dc:title>
      </cc:Work>
    </rdf:RDF>
  </metadata>
  <defs
     id="defs6" />
  <sodipodi:namedview
     pagecolor="#000000"
     bordercolor="#666666"
     borderopacity="1"
     objecttolerance="10"
     gridtolerance="10"
     guidetolerance="10"
     inkscape:pageopacity="1"
     inkscape:pageshadow="2"
     inkscape:window-width="1366"
     inkscape:window-height="748"
     id="namedview4"
     showgrid="false"
     inkscape:zoom="35.75"
     inkscape:cx="8.5520399"
     inkscape:cy="8"
     inkscape:window-x="-2"
     inkscape:window-y="-3"
     inkscape:window-maximized="1"
     inkscape:current-layer="svg2" />
  <path
     style="fill:#ffffff;fill-opacity:1"
     d="M 5.3218412,15.54897 C 2.7712214,14.42142 1.3435664,12.97639 0.47601675,10.64417 -1.2610717,5.974393 1.94703,0.773851 6.9971027,0.073065 10.737219,-0.445941 14.354258,1.843814 15.64917,5.550228 c 0.42312,1.211095 0.4713,3.379472 0.102053,4.593172 -0.706693,2.32288 -2.251522,4.08939 -4.519785,5.16838 -1.3454721,0.64003 -1.3809241,0.64779 -3.1001382,0.67889 -1.667243,0.0302 -1.7833292,0.0119 -2.8094586,-0.4417 z m 0.7628894,-0.55393 c -0.1206598,-0.19051 0.7909201,-1.07011 0.9866692,-0.95206 0.077132,0.0465 0.2620982,0.0233 0.4110369,-0.0516 0.1489385,-0.0749 0.5259917,-0.25827 0.837896,-0.40747 0.3119042,-0.14919 0.5670985,-0.32178 0.5670985,-0.38353 0,-0.0617 0.263824,-0.15343 0.5862755,-0.20374 0.5393953,-0.0842 1.3796663,-0.6489 1.3796663,-0.92725 0,-0.0649 0.165931,-0.19168 0.368735,-0.28185 0.202803,-0.0902 0.442111,-0.29773 0.531793,-0.46124 0.139485,-0.25432 0.06431,-0.39787 -0.51996,-0.99289 C 10.85828,9.95084 10.54996,9.50029 10.548786,9.3322 10.547586,9.16411 10.275404,8.73309 9.943881,8.37439 9.6123567,8.01568 9.3411101,7.63177 9.3411101,7.52125 9.3411101,7.41074 9.2220194,7.2793 9.0764641,7.22917 8.9309088,7.17907 8.6570227,7.002 8.4678283,6.835748 8.2409874,6.636409 7.9325933,6.538753 7.5622745,6.548996 6.7032993,6.572756 6.4709368,6.392161 6.5727529,5.779929 6.6418769,5.364278 6.6098649,5.263659 6.408498,5.263659 6.1790362,5.263659 6.1780811,5.234329 6.396929,4.908409 6.657047,4.521029 6.437072,4.201669 6.1219367,4.509176 5.5943351,5.024006 5.263671,4.264715 5.7668765,3.693865 6.0781652,3.340731 6.1395699,3.327155 6.7271883,3.481554 7.1677161,3.597305 7.3692387,3.735363 7.4028647,3.944445 7.4657397,4.335394 7.7395676,4.327872 7.8026268,3.933465 7.8297928,3.763555 8.0169352,3.563354 8.2184991,3.488575 8.4200624,3.413795 8.5849785,3.289714 8.5849785,3.212839 c 0,-0.200078 0.9648863,-0.483615 1.2642679,-0.371512 0.1385157,0.05187 0.3469996,0.01724 0.4632966,-0.07694 0.14478,-0.117247 0.242351,-0.122452 0.309452,-0.01651 0.0539,0.0851 0.17037,0.154731 0.258819,0.154731 0.09931,0 0.08662,-0.08723 -0.03315,-0.228063 C 10.74098,2.549109 10.556376,2.48292 10.437435,2.527458 10.318493,2.571998 10.142254,2.559828 10.045791,2.500408 9.93984,2.435148 10.040991,2.361935 10.301271,2.315472 L 10.732136,2.238562 10.150045,1.654018 C 9.8298911,1.332493 9.6530139,1.120598 9.7569819,1.183113 c 0.1039681,0.06251 0.1890329,0.05931 0.1890329,-0.0071 0,-0.06643 -0.1459697,-0.209731 -0.3243774,-0.318452 -0.2861068,-0.174351 -0.313075,-0.16893 -0.228572,0.04595 0.053383,0.135747 0.03297,0.205729 -0.0461,0.158044 C 9.2689164,1.014485 9.1321231,1.108955 9.0429793,1.271492 8.8817922,1.565382 8.878849,1.56527 8.5084908,1.251042 8.058107,0.868918 8.216153,0.590025 8.9364998,0.495764 9.3180723,0.445834 9.2769263,0.429024 8.736205,0.413924 6.7693463,0.359004 5.9221005,0.431724 5.1212469,0.724202 4.6558273,0.894175 4.3563217,1.059727 4.4556785,1.092096 c 0.099357,0.03237 0.3160516,-0.01186 0.4815437,-0.09828 0.6178979,-0.322684 0.6791885,-0.127911 0.1132355,0.359847 -0.4574063,0.394208 -0.62823,0.68361 -0.7802974,1.321946 -0.1070789,0.449488 -0.1375084,0.81725 -0.067621,0.81725 0.069887,0 0.1618961,-0.14941 0.2044642,-0.332022 0.042568,-0.182612 0.054729,-0.0085 0.027025,0.38683 C 4.3859315,4.234053 4.4150055,4.29583 5.0777758,4.915502 5.4595412,5.272443 5.9187155,5.84542 6.098163,6.188785 6.2964732,6.568241 6.5219017,6.805046 6.6729609,6.792588 7.1025004,6.757168 6.9465307,7.24264 6.3165851,7.90184 5.6294039,8.62093 5.6424337,8.57417 5.9158782,9.34004 6.0281872,9.6546 6.09293,9.98805 6.0597511,10.08105 c -0.033179,0.093 0.071383,0.38043 0.2323588,0.63873 l 0.2926841,0.46963 -0.4299885,1.1865 c -0.6054391,1.67065 -0.702369,2.40419 -0.3445083,2.60716 0.355476,0.20162 0.3956491,0.20337 0.2744334,0.012 z M 7.1105224,0.587377 c 0.1455553,-0.03712 0.3837367,-0.03712 0.529292,0 0.1455553,0.03712 0.026465,0.06748 -0.264646,0.06748 -0.2911106,0 -0.4102013,-0.03037 -0.264646,-0.06748 z M 15.254933,9.70009 c 0.09145,-0.60349 0.200593,-1.18453 0.242542,-1.2912 0.1823,-0.46357 -0.280906,-0.13941 -0.557918,0.39043 -0.320845,0.61369 -0.429441,2.0718 -0.154301,2.0718 0.08317,0 0.160493,0.14941 0.17182,0.33202 0.01859,0.29974 0.02599,0.29615 0.07609,-0.0369 0.03052,-0.2029 0.130317,-0.86268 0.221766,-1.46616 z M 8.6605918,5.706325 C 8.6091868,5.625164 8.4650511,5.55876 8.3402894,5.55876 c -0.1247617,0 -0.1847811,0.0664 -0.1333765,0.147565 0.051405,0.08116 0.1955408,0.147566 0.3203025,0.147566 0.1247617,0 0.1847811,-0.06641 0.1333764,-0.147566 z M 7.6823339,4.794983 C 7.4949641,4.646933 7.2301099,4.52846 7.0937689,4.531709 6.9293817,4.535609 6.979927,4.608689 7.2438172,4.748603 7.4626847,4.864644 7.691776,5.0778 7.7529091,5.222282 7.8407821,5.429962 7.8807039,5.440913 7.9435333,5.274572 7.9872433,5.158849 7.8697033,4.943034 7.6823339,4.794984 z M 11.527799,1.731675 C 11.631733,1.567579 10.801721,0.922404 10.199022,0.698806 9.8061486,0.553051 9.8239238,0.592026 10.426533,1.197668 c 0.653101,0.656388 0.936666,0.793889 1.101266,0.534007 z M 8.8874312,0.836663 c 0,-0.08116 -0.072068,-0.147565 -0.1601512,-0.147565 -0.088083,0 -0.1180929,0.0664 -0.066688,0.147565 0.051405,0.08116 0.1234726,0.147566 0.1601512,0.147566 0.036679,0 0.066688,-0.06641 0.066688,-0.147566 z"
     id="path3043"
     inkscape:connector-curvature="0" />
</svg>
