<?xml version="1.0" encoding="UTF-8" standalone="no"?>
<!-- Created with Inkscape (http://www.inkscape.org/) -->

<svg
   xmlns:dc="http://purl.org/dc/elements/1.1/"
   xmlns:cc="http://creativecommons.org/ns#"
   xmlns:rdf="http://www.w3.org/1999/02/22-rdf-syntax-ns#"
   xmlns:svg="http://www.w3.org/2000/svg"
   xmlns="http://www.w3.org/2000/svg"
   xmlns:sodipodi="http://sodipodi.sourceforge.net/DTD/sodipodi-0.dtd"
   xmlns:inkscape="http://www.inkscape.org/namespaces/inkscape"
   id="svg2"
   version="1.1"
   inkscape:version="0.91 r13725"
   width="128"
   height="128"
   sodipodi:docname="applications-internet.svg"
   inkscape:export-filename="/home/hipersayan_x/Documentos/CarpetaPersonal/Proyectos/Webcamoid/share/icons/default/256x256/applications-internet.png"
   inkscape:export-xdpi="180"
   inkscape:export-ydpi="180">
  <metadata
     id="metadata8">
    <rdf:RDF>
      <cc:Work
         rdf:about="">
        <dc:format>image/svg+xml</dc:format>
        <dc:type
           rdf:resource="http://purl.org/dc/dcmitype/StillImage" />
        <dc:title></dc:title>
      </cc:Work>
    </rdf:RDF>
  </metadata>
  <defs
     id="defs6" />
  <sodipodi:namedview
     pagecolor="#000000"
     bordercolor="#666666"
     borderopacity="1"
     objecttolerance="10"
     gridtolerance="10"
     guidetolerance="10"
     inkscape:pageopacity="1"
     inkscape:pageshadow="2"
     inkscape:window-width="1332"
     inkscape:window-height="748"
     id="namedview4"
     showgrid="false"
     inkscape:zoom="4.546875"
     inkscape:cx="64"
     inkscape:cy="64"
     inkscape:window-x="32"
     inkscape:window-y="-3"
     inkscape:window-maximized="1"
     inkscape:current-layer="svg2" />
  <rect
     style="fill:#7f3fff;fill-opacity:1;stroke:none;stroke-width:12;stroke-linecap:butt;stroke-linejoin:miter;stroke-miterlimit:4;stroke-dasharray:none;stroke-opacity:1"
     id="rect3335"
     width="128"
     height="128"
     x="0"
     y="0"
     rx="4"
     ry="4" />
  <path
     style="fill:#ffffff;fill-opacity:1"
     d="M 47.93105,109.2941 C 32.62733,102.52882 24.0614,93.858582 18.856101,79.865283 8.4335703,51.846467 27.682182,20.643168 57.98262,16.438381 c 22.440702,-3.114022 44.14293,10.624564 51.91241,32.863126 2.53871,7.266563 2.82779,20.276853 0.6123,27.559137 -4.24016,13.937318 -13.50914,24.536376 -27.118713,31.010316 -8.072839,3.84021 -8.285546,3.8868 -18.600832,4.07336 -10.003462,0.18118 -10.699978,0.0671 -16.856755,-2.65022 z m 4.577337,-3.32359 c -0.723961,-1.14301 4.745518,-6.420638 5.920019,-5.71238 0.46284,0.27897 1.572584,0.13997 2.466217,-0.309648 0.893662,-0.44961 3.155954,-1.54967 5.027381,-2.44487 1.871417,-0.89539 3.402587,-1.93065 3.402587,-2.30117 0,-0.37005 1.582947,-0.92032 3.517655,-1.22249 3.236366,-0.50522 8.277992,-3.89341 8.277992,-5.5635 0,-0.38922 0.995587,-1.15011 2.212412,-1.69108 1.216817,-0.54069 2.652667,-1.78637 3.190763,-2.767465 0.836909,-1.525903 0.38586,-2.38726 -3.119764,-5.957318 -2.253961,-2.29542 -4.103885,-4.998751 -4.110931,-6.00736 -0.0072,-1.008512 -1.640295,-3.594599 -3.629426,-5.746795 -1.98915,-2.152292 -3.616627,-4.455765 -3.616627,-5.118872 0,-0.663394 -0.714585,-1.451702 -1.587875,-1.75253 -0.873338,-0.30102 -2.516652,-1.363026 -3.65182,-2.360514 -1.361046,-1.196026 -3.211411,-1.781961 -5.433324,-1.72051 -5.153847,0.14284 -6.548024,-0.941406 -5.937129,-4.614424 0.414716,-2.493959 0.222697,-3.097629 -0.985526,-3.097629 -1.376771,0 -1.382501,-0.176394 -0.06941,-2.131489 1.560703,-2.324276 0.240854,-4.24045 -1.649961,-2.395409 -3.16561,3.089001 -5.149594,-1.466753 -2.130361,-4.891861 1.867732,-2.118834 2.23616,-2.200225 5.761866,-1.27387 2.643167,0.69503 3.852304,1.522835 4.054064,2.77734 0.377232,2.34575 2.02022,2.300597 2.398574,-0.06711 0.162972,-1.019441 1.28585,-2.220645 2.495236,-2.669299 1.209377,-0.448654 2.198876,-1.193246 2.198876,-1.654459 0,-1.200436 5.789313,-2.901678 7.5856,-2.229081 0.831062,0.311565 2.082006,0.103536 2.779786,-0.462075 0.868641,-0.703658 1.454103,-0.734335 1.856711,-0.09874 0.323452,0.510967 1.022218,0.927985 1.552913,0.927985 0.595902,0 0.519689,-0.52343 -0.198922,-1.368298 -0.640097,-0.75255 -1.747722,-1.14982 -2.461367,-0.882928 -0.713625,0.267466 -1.771093,0.194608 -2.349865,-0.162014 -0.635686,-0.392093 -0.02876,-0.83116 1.532877,-1.109651 l 2.585206,-0.461117 -3.492538,-3.507265 c -1.920932,-1.929116 -2.982187,-3.200493 -2.358388,-2.825465 0.6238,0.374837 1.134199,0.355664 1.134199,-0.03835 0,-0.398803 -0.875831,-1.25834 -1.94626,-1.910709 -1.716641,-1.046092 -1.878454,-1.013594 -1.371438,0.276094 0.320288,0.814863 0.197867,1.234374 -0.276573,0.948117 -0.468305,-0.282805 -1.289061,0.284723 -1.823916,1.259586 -0.967124,1.763363 -0.984782,1.762692 -3.206935,-0.122709 -2.702306,-2.292736 -1.754029,-3.96608 2.568056,-4.531691 2.289431,-0.299102 2.042557,-0.400721 -1.201775,-0.490835 -11.80115,-0.32978 -16.884624,0.106412 -21.689746,1.861722 -2.792518,1.019824 -4.589551,2.013094 -3.993411,2.207319 0.596142,0.194609 1.89631,-0.06711 2.889263,-0.589577 3.707388,-1.936114 4.075131,-0.76693 0.679411,2.159099 -2.744438,2.365306 -3.769381,4.101635 -4.681784,7.931682 -0.642474,2.697004 -0.825051,4.903556 -0.405724,4.903556 0.419327,0 0.971377,-0.896349 1.226785,-1.992196 0.255406,-1.095654 0.328379,-0.04793 0.162148,2.321017 -0.288585,4.118316 -0.114138,4.489031 3.862484,8.20701 2.290592,2.141651 5.045638,5.579605 6.122323,7.639769 1.189861,2.276727 2.542436,3.69756 3.44879,3.62288 2.57724,-0.212823 1.641416,2.700264 -2.138257,6.655511 -4.123088,4.314555 -4.044909,4.033954 -2.404242,8.629205 0.673851,1.887318 1.062311,3.888046 0.863234,4.446083 -0.199075,0.557941 0.4283,2.282574 1.394153,3.832347 l 1.756105,2.817795 -2.579931,7.119018 c -3.632635,10.023958 -4.214215,14.425178 -2.06705,15.643068 2.132856,1.20973 2.373894,1.22018 1.6466,0.0671 z m 6.154747,-86.446196 c 0.873338,-0.22241 2.30242,-0.22241 3.175759,0 0.873338,0.22241 0.158754,0.404555 -1.587875,0.404555 -1.746667,0 -2.461213,-0.182145 -1.587884,-0.404555 z M 107.52961,74.20074 c 0.54873,-3.620962 1.20355,-7.107232 1.45525,-7.747235 1.09379,-2.781366 -1.68544,-0.835953 -3.34751,2.342586 -1.92508,3.682221 -2.57665,12.430875 -0.92578,12.430875 0.49898,0 0.96295,0.896349 1.03092,1.9921 0.11159,1.798446 0.15598,1.776876 0.45652,-0.221451 0.1831,-1.217405 0.78188,-5.176104 1.3306,-8.79697 z M 67.963554,50.23812 c -0.3084,-0.487 -1.173245,-0.885804 -1.921814,-0.885804 -0.748617,0 -1.108689,0.398804 -0.800289,0.885804 0.308401,0.487 1.173246,0.884845 1.921815,0.884845 0.748521,0 1.108689,-0.398803 0.800288,-0.884845 z m -5.869543,-5.468112 c -1.124219,-0.88868 -2.71335,-1.599145 -3.531393,-1.579684 -0.986326,0.01917 -0.683044,0.462075 0.900277,1.301384 1.313209,0.695989 2.687754,1.975227 3.054556,2.842145 0.527262,1.246069 0.766735,1.311738 1.143747,0.313483 0.262289,-0.694071 -0.442996,-1.989224 -1.567197,-2.87752 z M 85.166795,26.390156 c 0.623608,-0.984642 -4.356463,-4.85572 -7.972659,-6.197271 -2.357237,-0.8743 -2.250586,-0.640386 1.365064,2.993134 3.918605,3.938376 5.619994,4.7634 6.607595,3.204137 z M 69.324591,21.020018 c 0,-0.487 -0.432451,-0.885803 -0.960912,-0.885803 -0.528508,0 -0.708545,0.398803 -0.400144,0.885803 0.308401,0.487001 0.740852,0.885804 0.960912,0.885804 0.220108,0 0.400144,-0.398803 0.400144,-0.885804 z"
     id="path3043"
     inkscape:connector-curvature="0" />
</svg>
