<?xml version="1.0" encoding="UTF-8" standalone="no"?>
<!-- Created with Inkscape (http://www.inkscape.org/) -->

<svg
   xmlns:dc="http://purl.org/dc/elements/1.1/"
   xmlns:cc="http://creativecommons.org/ns#"
   xmlns:rdf="http://www.w3.org/1999/02/22-rdf-syntax-ns#"
   xmlns:svg="http://www.w3.org/2000/svg"
   xmlns="http://www.w3.org/2000/svg"
   xmlns:sodipodi="http://sodipodi.sourceforge.net/DTD/sodipodi-0.dtd"
   xmlns:inkscape="http://www.inkscape.org/namespaces/inkscape"
   width="128"
   height="128"
   id="svg2"
   version="1.1"
   inkscape:version="0.91 r13725"
   sodipodi:docname="cancel.svg"
   inkscape:export-filename="/home/hipersayan_x/Documentos/CarpetaPersonal/Proyectos/Webcamoid/share/icons/default/256x256/cancel.png"
   inkscape:export-xdpi="180"
   inkscape:export-ydpi="180">
  <defs
     id="defs4" />
  <sodipodi:namedview
     id="base"
     pagecolor="#000000"
     bordercolor="#666666"
     borderopacity="1.0"
     inkscape:pageopacity="1"
     inkscape:pageshadow="2"
     inkscape:zoom="4.546875"
     inkscape:cx="62.133055"
     inkscape:cy="64"
     inkscape:document-units="px"
     inkscape:current-layer="layer1"
     showgrid="false"
     inkscape:window-width="1332"
     inkscape:window-height="748"
     inkscape:window-x="32"
     inkscape:window-y="-3"
     inkscape:window-maximized="1" />
  <metadata
     id="metadata7">
    <rdf:RDF>
      <cc:Work
         rdf:about="">
        <dc:format>image/svg+xml</dc:format>
        <dc:type
           rdf:resource="http://purl.org/dc/dcmitype/StillImage" />
        <dc:title />
      </cc:Work>
    </rdf:RDF>
  </metadata>
  <g
     inkscape:label="Capa 1"
     inkscape:groupmode="layer"
     id="layer1"
     transform="translate(0,-924.36218)">
    <rect
       style="fill:#ff0000;fill-opacity:1;stroke:none;stroke-width:12;stroke-linecap:butt;stroke-linejoin:miter;stroke-miterlimit:4;stroke-dasharray:none;stroke-opacity:1"
       id="rect4135"
       width="128"
       height="128"
       x="0"
       y="924.36218"
       rx="4"
       ry="4"
       inkscape:export-filename="/home/hipersayan_x/Documentos/CarpetaPersonal/Proyectos/Webcamoid/share/icons/default/8x8/rect4135.png"
       inkscape:export-xdpi="5.625"
       inkscape:export-ydpi="5.625" />
    <path
       style="fill:#ffffff;fill-opacity:1;stroke:none;stroke-width:12;stroke-linecap:butt;stroke-linejoin:miter;stroke-miterlimit:4;stroke-dasharray:none;stroke-opacity:1"
       d="M 64.671875 16.003906 A 48 48 0 0 0 37.455078 24.007812 A 48 48 0 0 0 23.365234 89.550781 A 48 48 0 0 0 88.541016 105.25195 A 48 48 0 0 0 105.8457 40.484375 L 103.32422 36.476562 A 48 48 0 0 0 64.671875 16.003906 z M 64.447266 32.003906 A 32 32 0 0 1 90.216797 45.650391 L 91.896484 48.322266 A 32 32 0 0 1 80.359375 91.501953 A 32 32 0 0 1 36.910156 81.033203 A 32 32 0 0 1 46.302734 37.339844 A 32 32 0 0 1 64.447266 32.003906 z "
       transform="translate(0,924.36218)"
       id="path3335" />
    <rect
       style="fill:#ffffff;fill-opacity:1;stroke:none;stroke-width:12;stroke-linecap:butt;stroke-linejoin:miter;stroke-miterlimit:4;stroke-dasharray:none;stroke-opacity:1"
       id="rect4140"
       width="80"
       height="16"
       x="-784.13245"
       y="-661.62274"
       transform="matrix(-0.70710678,-0.70710678,0.70710678,-0.70710678,0,0)" />
  </g>
</svg>
